<?xml version="1.0" encoding="utf-8"?>
<svg width="800px" height="800px" viewBox="0 0 800 800" version="1.1" xmlns:xlink="http://www.w3.org/1999/xlink" xmlns="http://www.w3.org/2000/svg">
  <defs>
    <path d="M0 0L800 0L800 800L0 800L0 0Z" id="path_1" />
    <path d="M0 0L200 0L200 200L0 200L0 0Z" id="path_2" />
    <clipPath id="mask_1">
      <use xlink:href="#path_1" />
    </clipPath>
    <clipPath id="mask_2">
      <use xlink:href="#path_2" />
    </clipPath>
  </defs>
  <g id="gaming-israel-controler-logo">
    <path d="M0 0L800 0L800 800L0 800L0 0Z" id="Background" fill="#FFFFFF" fill-opacity="0" fill-rule="evenodd" stroke="none" />
    <g clip-path="url(#mask_1)">
      <path d="M465.625 499.475L537.557 499.187C585.579 499.145 631.128 477.883 661.999 441.098C692.869 404.313 705.906 355.766 697.615 308.465L697.589 308.469L748.685 572.291C755.314 609.901 736.788 647.465 702.915 665.099C669.041 682.733 627.644 676.364 600.637 649.363L600.643 649.357L465.625 499.475L465.625 499.475Z" id="Shape" fill="#33A6F2" fill-rule="evenodd" stroke="none" />
      <path d="M773.305 567.947C773.28 567.81 773.254 567.673 773.228 567.535L722.133 303.714C722.095 303.516 722.032 303.33 721.99 303.134C705.677 214.059 628.113 149.316 537.557 149.188L537.483 149.188L262.514 150C171.441 149.819 93.4692 215.245 77.8321 304.965C77.7924 305.191 77.7558 305.42 77.7222 305.646L26.8036 567.517C26.7762 567.661 26.7502 567.804 26.7243 567.947C18.2034 616.297 42.018 664.59 85.5634 687.264C129.109 709.938 182.329 701.758 217.055 667.053C217.508 666.601 217.941 666.136 218.355 665.655L345.633 524.954L454.538 524.519L581.636 665.61C582.06 666.104 582.506 666.585 582.974 667.053C617.699 701.763 670.922 709.947 714.47 687.271C758.017 664.596 781.831 616.299 773.305 567.947L773.305 567.947ZM334.396 475C327.367 475.028 320.674 478.015 315.958 483.228L181.226 632.166C161.842 651.125 132.445 655.424 108.444 642.811C84.4419 630.198 71.3094 603.549 75.9293 576.831L127.023 314.057C127.121 313.547 127.203 313.04 127.271 312.537C139.204 247.224 196.193 199.829 262.587 200L537.579 199.188C586.703 199.21 632.084 225.438 656.627 267.992C681.17 310.545 681.146 362.96 656.565 405.492C631.984 448.023 586.58 474.21 537.456 474.188L334.396 475ZM673.367 649.036C653.531 652.517 633.231 646.244 618.817 632.178L521.593 524.252L537.557 524.188C602.364 524.15 662.557 490.651 696.746 435.596L724.098 576.822C729.936 610.751 707.265 643.021 673.367 649.036L673.367 649.036Z" id="Shape" fill="#FFFFFF" fill-rule="evenodd" stroke="none" />
      <path d="M600 337.5C600 323.693 588.807 312.5 575 312.5L475 312.5C461.193 312.5 450 323.693 450 337.5C450 351.307 461.193 362.5 475 362.5L575 362.5C588.807 362.5 600 351.307 600 337.5L600 337.5Z" id="Shape" fill="#33A6F2" fill-rule="evenodd" stroke="none" />
      <g id="isreal" transform="translate(168.87573 236.99976)">
        <path d="M0 0L200 0L200 200L0 200L0 0Z" id="Background" fill="#FFFFFF" fill-opacity="0" fill-rule="evenodd" stroke="none" />
        <g clip-path="url(#mask_2)">
          <path d="M99.9824 0L50.9785 84.8777L42.2508 84.8777L42.2508 99.9941L13.2266 150.267L111.262 150.267L111.262 159.156L128.72 150.267L186.773 150.267L137.437 64.848L137.437 55.959L128.711 49.7418L99.9824 0L99.9824 0ZM100 30.2313L111.262 49.734L111.262 60.4051L119.99 64.8496L160.587 135.152L137.449 135.152L137.449 126.262L119.991 135.152L39.4133 135.152L50.9816 115.118L59.7102 115.118L59.7102 100.002L100 30.2313L100 30.2313Z" id="Shape" fill="#33A6F2" fill-rule="evenodd" stroke="none" />
          <path d="M137.449 135.151L119.991 135.151L160.587 64.8488L137.436 64.8488L128.711 49.7422C128.724 49.7332 186.773 49.7332 186.773 49.7332L137.449 135.151L137.449 135.151ZM100 169.769L111.262 150.267L128.72 150.267L100 200L50.9867 115.12L59.7156 100.004L100 169.769ZM111.262 49.7332L119.991 64.8488L39.4133 64.8488L50.982 84.8801L42.2535 99.9957L13.2266 49.7332L111.262 49.7332Z" id="Group" fill="#33A6F2" fill-rule="evenodd" stroke="none" />
        </g>
      </g>
    </g>
  </g>
</svg>