<svg xmlns="http://www.w3.org/2000/svg" version="1.1" xmlns:xlink="http://www.w3.org/1999/xlink" xmlns:svgjs="http://svgjs.com/svgjs" width="1920" height="1080" preserveAspectRatio="none" viewBox="0 0 1920 1080"><g mask="url(&quot;#SvgjsMask1226&quot;)" fill="none"><path d="M413 491L412 136" stroke-width="8" stroke="url(#SvgjsLinearGradient1227)" stroke-linecap="round" class="Down"></path><path d="M292 811L291 1120" stroke-width="10" stroke="url(#SvgjsLinearGradient1228)" stroke-linecap="round" class="Up"></path><path d="M1144 486L1143 132" stroke-width="8" stroke="url(#SvgjsLinearGradient1229)" stroke-linecap="round" class="Down"></path><path d="M886 348L885 -218" stroke-width="8" stroke="url(#SvgjsLinearGradient1228)" stroke-linecap="round" class="Up"></path><path d="M1674 501L1673 908" stroke-width="10" stroke="url(#SvgjsLinearGradient1229)" stroke-linecap="round" class="Down"></path><path d="M585 57L584 -483" stroke-width="6" stroke="url(#SvgjsLinearGradient1230)" stroke-linecap="round" class="Down"></path><path d="M139 1038L138 1812" stroke-width="6" stroke="url(#SvgjsLinearGradient1231)" stroke-linecap="round" class="Down"></path><path d="M573 974L572 268" stroke-width="8" stroke="url(#SvgjsLinearGradient1228)" stroke-linecap="round" class="Up"></path><path d="M128 157L127 -426" stroke-width="8" stroke="url(#SvgjsLinearGradient1232)" stroke-linecap="round" class="Up"></path><path d="M319 1055L318 1736" stroke-width="8" stroke="url(#SvgjsLinearGradient1230)" stroke-linecap="round" class="Down"></path><path d="M1723 822L1722 264" stroke-width="6" stroke="url(#SvgjsLinearGradient1233)" stroke-linecap="round" class="Up"></path><path d="M80 689L79 230" stroke-width="8" stroke="url(#SvgjsLinearGradient1234)" stroke-linecap="round" class="Up"></path><path d="M1547 893L1546 1454" stroke-width="8" stroke="url(#SvgjsLinearGradient1235)" stroke-linecap="round" class="Up"></path><path d="M1180 375L1179 927" stroke-width="10" stroke="url(#SvgjsLinearGradient1231)" stroke-linecap="round" class="Down"></path><path d="M440 303L439 -157" stroke-width="6" stroke="url(#SvgjsLinearGradient1236)" stroke-linecap="round" class="Up"></path><path d="M653 22L652 -294" stroke-width="8" stroke="url(#SvgjsLinearGradient1237)" stroke-linecap="round" class="Down"></path><path d="M1782 616L1781 975" stroke-width="8" stroke="url(#SvgjsLinearGradient1231)" stroke-linecap="round" class="Down"></path><path d="M1231 243L1230 991" stroke-width="8" stroke="url(#SvgjsLinearGradient1229)" stroke-linecap="round" class="Down"></path><path d="M1483 301L1482 873" stroke-width="10" stroke="url(#SvgjsLinearGradient1229)" stroke-linecap="round" class="Down"></path><path d="M1252 476L1251 -152" stroke-width="8" stroke="url(#SvgjsLinearGradient1227)" stroke-linecap="round" class="Down"></path><path d="M359 91L358 399" stroke-width="8" stroke="url(#SvgjsLinearGradient1236)" stroke-linecap="round" class="Up"></path><path d="M420 950L419 639" stroke-width="6" stroke="url(#SvgjsLinearGradient1235)" stroke-linecap="round" class="Up"></path><path d="M1433 799L1432 356" stroke-width="10" stroke="url(#SvgjsLinearGradient1238)" stroke-linecap="round" class="Down"></path><path d="M745 279L744 -481" stroke-width="10" stroke="url(#SvgjsLinearGradient1232)" stroke-linecap="round" class="Up"></path><path d="M195 472L194 1070" stroke-width="8" stroke="url(#SvgjsLinearGradient1229)" stroke-linecap="round" class="Down"></path><path d="M447 427L446 964" stroke-width="6" stroke="url(#SvgjsLinearGradient1239)" stroke-linecap="round" class="Up"></path><path d="M1115 143L1114 -366" stroke-width="6" stroke="url(#SvgjsLinearGradient1233)" stroke-linecap="round" class="Up"></path><path d="M1368 953L1367 1549" stroke-width="6" stroke="url(#SvgjsLinearGradient1229)" stroke-linecap="round" class="Down"></path><path d="M679 907L678 302" stroke-width="8" stroke="url(#SvgjsLinearGradient1233)" stroke-linecap="round" class="Up"></path><path d="M1006 1028L1005 607" stroke-width="10" stroke="url(#SvgjsLinearGradient1228)" stroke-linecap="round" class="Up"></path><path d="M348 59L347 439" stroke-width="10" stroke="url(#SvgjsLinearGradient1228)" stroke-linecap="round" class="Up"></path><path d="M1182 316L1181 -124" stroke-width="10" stroke="url(#SvgjsLinearGradient1240)" stroke-linecap="round" class="Down"></path><path d="M870 58L869 746" stroke-width="8" stroke="url(#SvgjsLinearGradient1228)" stroke-linecap="round" class="Up"></path><path d="M502 332L501 999" stroke-width="6" stroke="url(#SvgjsLinearGradient1237)" stroke-linecap="round" class="Down"></path><path d="M437 497L436 1100" stroke-width="10" stroke="url(#SvgjsLinearGradient1232)" stroke-linecap="round" class="Up"></path><path d="M333 1000L332 313" stroke-width="6" stroke="url(#SvgjsLinearGradient1234)" stroke-linecap="round" class="Up"></path><path d="M1881 916L1880 1516" stroke-width="10" stroke="url(#SvgjsLinearGradient1240)" stroke-linecap="round" class="Down"></path><path d="M1612 970L1611 363" stroke-width="10" stroke="url(#SvgjsLinearGradient1239)" stroke-linecap="round" class="Up"></path><path d="M1106 784L1105 1090" stroke-width="10" stroke="url(#SvgjsLinearGradient1239)" stroke-linecap="round" class="Up"></path><path d="M809 31L808 674" stroke-width="6" stroke="url(#SvgjsLinearGradient1235)" stroke-linecap="round" class="Up"></path><path d="M151 778L150 230" stroke-width="6" stroke="url(#SvgjsLinearGradient1239)" stroke-linecap="round" class="Up"></path><path d="M221 144L220 458" stroke-width="10" stroke="url(#SvgjsLinearGradient1231)" stroke-linecap="round" class="Down"></path><path d="M454 591L453 1347" stroke-width="6" stroke="url(#SvgjsLinearGradient1231)" stroke-linecap="round" class="Down"></path><path d="M1820 922L1819 1536" stroke-width="6" stroke="url(#SvgjsLinearGradient1228)" stroke-linecap="round" class="Up"></path><path d="M1008 427L1007 -358" stroke-width="8" stroke="url(#SvgjsLinearGradient1230)" stroke-linecap="round" class="Down"></path><path d="M63 675L62 67" stroke-width="10" stroke="url(#SvgjsLinearGradient1236)" stroke-linecap="round" class="Up"></path><path d="M77 858L76 559" stroke-width="6" stroke="url(#SvgjsLinearGradient1238)" stroke-linecap="round" class="Down"></path><path d="M1413 210L1412 856" stroke-width="6" stroke="url(#SvgjsLinearGradient1227)" stroke-linecap="round" class="Down"></path></g><defs><mask id="SvgjsMask1226"><rect width="1920" height="1080" fill="#ffffff"></rect></mask><linearGradient x1="0%" y1="0%" x2="0%" y2="100%" id="SvgjsLinearGradient1227"><stop stop-color="rgba(45, 45, 45, 0)" offset="0"></stop><stop stop-color="rgba(45, 45, 45, 1)" offset="1"></stop></linearGradient><linearGradient x1="0%" y1="100%" x2="0%" y2="0%" id="SvgjsLinearGradient1228"><stop stop-color="rgba(133, 133, 133, 0)" offset="0"></stop><stop stop-color="rgba(133, 133, 133, 1)" offset="1"></stop></linearGradient><linearGradient x1="0%" y1="0%" x2="0%" y2="100%" id="SvgjsLinearGradient1229"><stop stop-color="rgba(0, 0, 0, 0)" offset="0"></stop><stop stop-color="rgba(0, 0, 0, 1)" offset="1"></stop></linearGradient><linearGradient x1="0%" y1="0%" x2="0%" y2="100%" id="SvgjsLinearGradient1230"><stop stop-color="rgba(67, 67, 67, 0)" offset="0"></stop><stop stop-color="rgba(67, 67, 67, 1)" offset="1"></stop></linearGradient><linearGradient x1="0%" y1="0%" x2="0%" y2="100%" id="SvgjsLinearGradient1231"><stop stop-color="rgba(255, 255, 255, 0)" offset="0"></stop><stop stop-color="rgba(255, 255, 255, 1)" offset="1"></stop></linearGradient><linearGradient x1="0%" y1="100%" x2="0%" y2="0%" id="SvgjsLinearGradient1232"><stop stop-color="rgba(53, 53, 53, 0)" offset="0"></stop><stop stop-color="rgba(53, 53, 53, 1)" offset="1"></stop></linearGradient><linearGradient x1="0%" y1="100%" x2="0%" y2="0%" id="SvgjsLinearGradient1233"><stop stop-color="rgba(67, 67, 67, 0)" offset="0"></stop><stop stop-color="rgba(67, 67, 67, 1)" offset="1"></stop></linearGradient><linearGradient x1="0%" y1="100%" x2="0%" y2="0%" id="SvgjsLinearGradient1234"><stop stop-color="rgba(73, 73, 73, 0)" offset="0"></stop><stop stop-color="rgba(73, 73, 73, 1)" offset="1"></stop></linearGradient><linearGradient x1="0%" y1="100%" x2="0%" y2="0%" id="SvgjsLinearGradient1235"><stop stop-color="rgba(45, 45, 45, 0)" offset="0"></stop><stop stop-color="rgba(45, 45, 45, 1)" offset="1"></stop></linearGradient><linearGradient x1="0%" y1="100%" x2="0%" y2="0%" id="SvgjsLinearGradient1236"><stop stop-color="rgba(255, 255, 255, 0)" offset="0"></stop><stop stop-color="rgba(255, 255, 255, 1)" offset="1"></stop></linearGradient><linearGradient x1="0%" y1="0%" x2="0%" y2="100%" id="SvgjsLinearGradient1237"><stop stop-color="rgba(53, 53, 53, 0)" offset="0"></stop><stop stop-color="rgba(53, 53, 53, 1)" offset="1"></stop></linearGradient><linearGradient x1="0%" y1="0%" x2="0%" y2="100%" id="SvgjsLinearGradient1238"><stop stop-color="rgba(73, 73, 73, 0)" offset="0"></stop><stop stop-color="rgba(73, 73, 73, 1)" offset="1"></stop></linearGradient><linearGradient x1="0%" y1="100%" x2="0%" y2="0%" id="SvgjsLinearGradient1239"><stop stop-color="rgba(0, 0, 0, 0)" offset="0"></stop><stop stop-color="rgba(0, 0, 0, 1)" offset="1"></stop></linearGradient><linearGradient x1="0%" y1="0%" x2="0%" y2="100%" id="SvgjsLinearGradient1240"><stop stop-color="rgba(133, 133, 133, 0)" offset="0"></stop><stop stop-color="rgba(133, 133, 133, 1)" offset="1"></stop></linearGradient></defs></svg>