<svg xmlns="http://www.w3.org/2000/svg" version="1.1" xmlns:xlink="http://www.w3.org/1999/xlink" xmlns:svgjs="http://svgjs.com/svgjs" width="3840" height="2160" preserveAspectRatio="none" viewBox="0 0 3840 2160"><g mask="url(&quot;#SvgjsMask1143&quot;)" fill="none"><path d="M2776 1054L2775 2203" stroke-width="10" stroke="url(#SvgjsLinearGradient1144)" stroke-linecap="round" class="Up"></path><path d="M3291 1733L3290 2283" stroke-width="8" stroke="url(#SvgjsLinearGradient1145)" stroke-linecap="round" class="Up"></path><path d="M3567 1249L3566 2564" stroke-width="8" stroke="url(#SvgjsLinearGradient1146)" stroke-linecap="round" class="Down"></path><path d="M3561 168L3560 -683" stroke-width="10" stroke="url(#SvgjsLinearGradient1147)" stroke-linecap="round" class="Up"></path><path d="M3764 2022L3763 979" stroke-width="8" stroke="url(#SvgjsLinearGradient1148)" stroke-linecap="round" class="Up"></path><path d="M2532 1450L2531 2558" stroke-width="6" stroke="url(#SvgjsLinearGradient1149)" stroke-linecap="round" class="Down"></path><path d="M3755 1215L3754 -34" stroke-width="10" stroke="url(#SvgjsLinearGradient1150)" stroke-linecap="round" class="Down"></path><path d="M2036 1186L2035 -190" stroke-width="6" stroke="url(#SvgjsLinearGradient1147)" stroke-linecap="round" class="Up"></path><path d="M689 376L688 1194" stroke-width="6" stroke="url(#SvgjsLinearGradient1151)" stroke-linecap="round" class="Down"></path><path d="M1940 653L1939 1384" stroke-width="8" stroke="url(#SvgjsLinearGradient1152)" stroke-linecap="round" class="Down"></path><path d="M1331 1582L1330 350" stroke-width="6" stroke="url(#SvgjsLinearGradient1151)" stroke-linecap="round" class="Down"></path><path d="M2922 1164L2921 2380" stroke-width="8" stroke="url(#SvgjsLinearGradient1145)" stroke-linecap="round" class="Up"></path><path d="M3131 212L3130 1231" stroke-width="10" stroke="url(#SvgjsLinearGradient1153)" stroke-linecap="round" class="Down"></path><path d="M260 502L259 1922" stroke-width="10" stroke="url(#SvgjsLinearGradient1154)" stroke-linecap="round" class="Up"></path><path d="M212 971L211 -156" stroke-width="6" stroke="url(#SvgjsLinearGradient1145)" stroke-linecap="round" class="Up"></path><path d="M845 492L844 1688" stroke-width="6" stroke="url(#SvgjsLinearGradient1155)" stroke-linecap="round" class="Up"></path><path d="M1932 1315L1931 -105" stroke-width="10" stroke="url(#SvgjsLinearGradient1148)" stroke-linecap="round" class="Up"></path><path d="M2785 2062L2784 3248" stroke-width="6" stroke="url(#SvgjsLinearGradient1147)" stroke-linecap="round" class="Up"></path><path d="M2934 106L2933 1415" stroke-width="6" stroke="url(#SvgjsLinearGradient1155)" stroke-linecap="round" class="Up"></path><path d="M3221 494L3220 1721" stroke-width="6" stroke="url(#SvgjsLinearGradient1147)" stroke-linecap="round" class="Up"></path><path d="M3634 352L3633 -1245" stroke-width="8" stroke="url(#SvgjsLinearGradient1145)" stroke-linecap="round" class="Up"></path><path d="M1681 1854L1680 1282" stroke-width="6" stroke="url(#SvgjsLinearGradient1144)" stroke-linecap="round" class="Up"></path><path d="M1616 550L1615 1696" stroke-width="6" stroke="url(#SvgjsLinearGradient1145)" stroke-linecap="round" class="Up"></path><path d="M994 1471L993 618" stroke-width="10" stroke="url(#SvgjsLinearGradient1146)" stroke-linecap="round" class="Down"></path><path d="M1326 1059L1325 1669" stroke-width="8" stroke="url(#SvgjsLinearGradient1144)" stroke-linecap="round" class="Up"></path><path d="M2425 896L2424 1738" stroke-width="8" stroke="url(#SvgjsLinearGradient1152)" stroke-linecap="round" class="Down"></path><path d="M1771 465L1770 1028" stroke-width="6" stroke="url(#SvgjsLinearGradient1146)" stroke-linecap="round" class="Down"></path><path d="M1052 921L1051 1776" stroke-width="8" stroke="url(#SvgjsLinearGradient1156)" stroke-linecap="round" class="Down"></path><path d="M3713 1742L3712 898" stroke-width="8" stroke="url(#SvgjsLinearGradient1147)" stroke-linecap="round" class="Up"></path><path d="M3752 460L3751 1070" stroke-width="8" stroke="url(#SvgjsLinearGradient1145)" stroke-linecap="round" class="Up"></path><path d="M3234 1018L3233 -366" stroke-width="8" stroke="url(#SvgjsLinearGradient1154)" stroke-linecap="round" class="Up"></path><path d="M403 13L402 1380" stroke-width="8" stroke="url(#SvgjsLinearGradient1150)" stroke-linecap="round" class="Down"></path><path d="M972 426L971 1460" stroke-width="6" stroke="url(#SvgjsLinearGradient1146)" stroke-linecap="round" class="Down"></path><path d="M263 2L262 -1588" stroke-width="8" stroke="url(#SvgjsLinearGradient1154)" stroke-linecap="round" class="Up"></path><path d="M1848 2109L1847 1191" stroke-width="8" stroke="url(#SvgjsLinearGradient1156)" stroke-linecap="round" class="Down"></path><path d="M2533 749L2532 -592" stroke-width="8" stroke="url(#SvgjsLinearGradient1152)" stroke-linecap="round" class="Down"></path><path d="M125 301L124 -1182" stroke-width="10" stroke="url(#SvgjsLinearGradient1157)" stroke-linecap="round" class="Up"></path><path d="M3646 791L3645 2056" stroke-width="8" stroke="url(#SvgjsLinearGradient1148)" stroke-linecap="round" class="Up"></path><path d="M2651 1543L2650 2370" stroke-width="10" stroke="url(#SvgjsLinearGradient1154)" stroke-linecap="round" class="Up"></path><path d="M1322 1801L1321 3288" stroke-width="6" stroke="url(#SvgjsLinearGradient1151)" stroke-linecap="round" class="Down"></path><path d="M355 727L354 -580" stroke-width="10" stroke="url(#SvgjsLinearGradient1156)" stroke-linecap="round" class="Down"></path><path d="M2106 1061L2105 2206" stroke-width="8" stroke="url(#SvgjsLinearGradient1144)" stroke-linecap="round" class="Up"></path><path d="M2815 942L2814 278" stroke-width="8" stroke="url(#SvgjsLinearGradient1157)" stroke-linecap="round" class="Up"></path><path d="M2864 1079L2863 2182" stroke-width="8" stroke="url(#SvgjsLinearGradient1147)" stroke-linecap="round" class="Up"></path><path d="M1753 1750L1752 1177" stroke-width="6" stroke="url(#SvgjsLinearGradient1153)" stroke-linecap="round" class="Down"></path><path d="M3383 48L3382 -1459" stroke-width="8" stroke="url(#SvgjsLinearGradient1149)" stroke-linecap="round" class="Down"></path><path d="M110 568L109 2138" stroke-width="8" stroke="url(#SvgjsLinearGradient1145)" stroke-linecap="round" class="Up"></path><path d="M364 678L363 -631" stroke-width="6" stroke="url(#SvgjsLinearGradient1148)" stroke-linecap="round" class="Up"></path><path d="M179 1044L178 2576" stroke-width="6" stroke="url(#SvgjsLinearGradient1156)" stroke-linecap="round" class="Down"></path><path d="M2391 1330L2390 2110" stroke-width="8" stroke="url(#SvgjsLinearGradient1146)" stroke-linecap="round" class="Down"></path><path d="M2581 1975L2580 630" stroke-width="6" stroke="url(#SvgjsLinearGradient1146)" stroke-linecap="round" class="Down"></path><path d="M1547 323L1546 -763" stroke-width="6" stroke="url(#SvgjsLinearGradient1144)" stroke-linecap="round" class="Up"></path><path d="M3824 802L3823 117" stroke-width="10" stroke="url(#SvgjsLinearGradient1157)" stroke-linecap="round" class="Up"></path><path d="M2233 1040L2232 2397" stroke-width="8" stroke="url(#SvgjsLinearGradient1144)" stroke-linecap="round" class="Up"></path><path d="M3769 1102L3768 2200" stroke-width="6" stroke="url(#SvgjsLinearGradient1151)" stroke-linecap="round" class="Down"></path><path d="M3313 500L3312 -638" stroke-width="8" stroke="url(#SvgjsLinearGradient1151)" stroke-linecap="round" class="Down"></path><path d="M1301 764L1300 2046" stroke-width="8" stroke="url(#SvgjsLinearGradient1151)" stroke-linecap="round" class="Down"></path><path d="M3632 1843L3631 2450" stroke-width="6" stroke="url(#SvgjsLinearGradient1144)" stroke-linecap="round" class="Up"></path><path d="M3227 1997L3226 1401" stroke-width="10" stroke="url(#SvgjsLinearGradient1144)" stroke-linecap="round" class="Up"></path><path d="M2801 320L2800 895" stroke-width="10" stroke="url(#SvgjsLinearGradient1154)" stroke-linecap="round" class="Up"></path><path d="M2851 1042L2850 2107" stroke-width="8" stroke="url(#SvgjsLinearGradient1147)" stroke-linecap="round" class="Up"></path><path d="M2073 623L2072 1940" stroke-width="10" stroke="url(#SvgjsLinearGradient1146)" stroke-linecap="round" class="Down"></path><path d="M618 55L617 849" stroke-width="6" stroke="url(#SvgjsLinearGradient1156)" stroke-linecap="round" class="Down"></path><path d="M1184 1922L1183 837" stroke-width="6" stroke="url(#SvgjsLinearGradient1156)" stroke-linecap="round" class="Down"></path><path d="M775 675L774 -718" stroke-width="6" stroke="url(#SvgjsLinearGradient1150)" stroke-linecap="round" class="Down"></path><path d="M1135 2036L1134 3428" stroke-width="6" stroke="url(#SvgjsLinearGradient1145)" stroke-linecap="round" class="Up"></path><path d="M370 708L369 1829" stroke-width="10" stroke="url(#SvgjsLinearGradient1146)" stroke-linecap="round" class="Down"></path><path d="M2738 1653L2737 328" stroke-width="10" stroke="url(#SvgjsLinearGradient1144)" stroke-linecap="round" class="Up"></path><path d="M2764 1514L2763 2610" stroke-width="10" stroke="url(#SvgjsLinearGradient1150)" stroke-linecap="round" class="Down"></path><path d="M2252 2044L2251 3392" stroke-width="6" stroke="url(#SvgjsLinearGradient1150)" stroke-linecap="round" class="Down"></path><path d="M3722 1607L3721 2432" stroke-width="8" stroke="url(#SvgjsLinearGradient1157)" stroke-linecap="round" class="Up"></path><path d="M2026 808L2025 159" stroke-width="6" stroke="url(#SvgjsLinearGradient1148)" stroke-linecap="round" class="Up"></path><path d="M2340 1609L2339 2865" stroke-width="6" stroke="url(#SvgjsLinearGradient1145)" stroke-linecap="round" class="Up"></path><path d="M1863 571L1862 1271" stroke-width="10" stroke="url(#SvgjsLinearGradient1152)" stroke-linecap="round" class="Down"></path><path d="M2180 604L2179 2001" stroke-width="6" stroke="url(#SvgjsLinearGradient1149)" stroke-linecap="round" class="Down"></path><path d="M3757 974L3756 430" stroke-width="10" stroke="url(#SvgjsLinearGradient1147)" stroke-linecap="round" class="Up"></path><path d="M3482 1427L3481 3035" stroke-width="10" stroke="url(#SvgjsLinearGradient1155)" stroke-linecap="round" class="Up"></path><path d="M1205 766L1204 -68" stroke-width="10" stroke="url(#SvgjsLinearGradient1154)" stroke-linecap="round" class="Up"></path><path d="M2212 2126L2211 2832" stroke-width="6" stroke="url(#SvgjsLinearGradient1149)" stroke-linecap="round" class="Down"></path><path d="M1475 1853L1474 649" stroke-width="6" stroke="url(#SvgjsLinearGradient1155)" stroke-linecap="round" class="Up"></path><path d="M1117 999L1116 1801" stroke-width="6" stroke="url(#SvgjsLinearGradient1151)" stroke-linecap="round" class="Down"></path><path d="M421 970L420 291" stroke-width="8" stroke="url(#SvgjsLinearGradient1144)" stroke-linecap="round" class="Up"></path><path d="M1717 1158L1716 285" stroke-width="8" stroke="url(#SvgjsLinearGradient1151)" stroke-linecap="round" class="Down"></path><path d="M2442 1795L2441 2999" stroke-width="10" stroke="url(#SvgjsLinearGradient1146)" stroke-linecap="round" class="Down"></path><path d="M637 405L636 -731" stroke-width="10" stroke="url(#SvgjsLinearGradient1146)" stroke-linecap="round" class="Down"></path><path d="M2565 31L2564 972" stroke-width="8" stroke="url(#SvgjsLinearGradient1144)" stroke-linecap="round" class="Up"></path><path d="M241 1187L240 256" stroke-width="10" stroke="url(#SvgjsLinearGradient1153)" stroke-linecap="round" class="Down"></path><path d="M2376 2006L2375 490" stroke-width="6" stroke="url(#SvgjsLinearGradient1148)" stroke-linecap="round" class="Up"></path><path d="M2684 87L2683 1082" stroke-width="8" stroke="url(#SvgjsLinearGradient1155)" stroke-linecap="round" class="Up"></path><path d="M3083 1202L3082 2140" stroke-width="6" stroke="url(#SvgjsLinearGradient1154)" stroke-linecap="round" class="Up"></path><path d="M397 1646L396 1099" stroke-width="6" stroke="url(#SvgjsLinearGradient1156)" stroke-linecap="round" class="Down"></path><path d="M176 105L175 681" stroke-width="10" stroke="url(#SvgjsLinearGradient1145)" stroke-linecap="round" class="Up"></path><path d="M767 1004L766 2468" stroke-width="10" stroke="url(#SvgjsLinearGradient1147)" stroke-linecap="round" class="Up"></path><path d="M1334 55L1333 -718" stroke-width="10" stroke="url(#SvgjsLinearGradient1145)" stroke-linecap="round" class="Up"></path><path d="M2481 472L2480 1790" stroke-width="8" stroke="url(#SvgjsLinearGradient1144)" stroke-linecap="round" class="Up"></path><path d="M1840 1594L1839 119" stroke-width="8" stroke="url(#SvgjsLinearGradient1144)" stroke-linecap="round" class="Up"></path></g><defs><mask id="SvgjsMask1143"><rect width="3840" height="2160" fill="#ffffff"></rect></mask><linearGradient x1="0%" y1="100%" x2="0%" y2="0%" id="SvgjsLinearGradient1144"><stop stop-color="rgba(0, 0, 0, 0)" offset="0"></stop><stop stop-color="rgba(0, 0, 0, 1)" offset="1"></stop></linearGradient><linearGradient x1="0%" y1="100%" x2="0%" y2="0%" id="SvgjsLinearGradient1145"><stop stop-color="rgba(67, 67, 67, 0)" offset="0"></stop><stop stop-color="rgba(67, 67, 67, 1)" offset="1"></stop></linearGradient><linearGradient x1="0%" y1="0%" x2="0%" y2="100%" id="SvgjsLinearGradient1146"><stop stop-color="rgba(45, 45, 45, 0)" offset="0"></stop><stop stop-color="rgba(45, 45, 45, 1)" offset="1"></stop></linearGradient><linearGradient x1="0%" y1="100%" x2="0%" y2="0%" id="SvgjsLinearGradient1147"><stop stop-color="rgba(255, 255, 255, 0)" offset="0"></stop><stop stop-color="rgba(255, 255, 255, 1)" offset="1"></stop></linearGradient><linearGradient x1="0%" y1="100%" x2="0%" y2="0%" id="SvgjsLinearGradient1148"><stop stop-color="rgba(53, 53, 53, 0)" offset="0"></stop><stop stop-color="rgba(53, 53, 53, 1)" offset="1"></stop></linearGradient><linearGradient x1="0%" y1="0%" x2="0%" y2="100%" id="SvgjsLinearGradient1149"><stop stop-color="rgba(255, 255, 255, 0)" offset="0"></stop><stop stop-color="rgba(255, 255, 255, 1)" offset="1"></stop></linearGradient><linearGradient x1="0%" y1="0%" x2="0%" y2="100%" id="SvgjsLinearGradient1150"><stop stop-color="rgba(67, 67, 67, 0)" offset="0"></stop><stop stop-color="rgba(67, 67, 67, 1)" offset="1"></stop></linearGradient><linearGradient x1="0%" y1="0%" x2="0%" y2="100%" id="SvgjsLinearGradient1151"><stop stop-color="rgba(0, 0, 0, 0)" offset="0"></stop><stop stop-color="rgba(0, 0, 0, 1)" offset="1"></stop></linearGradient><linearGradient x1="0%" y1="0%" x2="0%" y2="100%" id="SvgjsLinearGradient1152"><stop stop-color="rgba(73, 73, 73, 0)" offset="0"></stop><stop stop-color="rgba(73, 73, 73, 1)" offset="1"></stop></linearGradient><linearGradient x1="0%" y1="0%" x2="0%" y2="100%" id="SvgjsLinearGradient1153"><stop stop-color="rgba(133, 133, 133, 0)" offset="0"></stop><stop stop-color="rgba(133, 133, 133, 1)" offset="1"></stop></linearGradient><linearGradient x1="0%" y1="100%" x2="0%" y2="0%" id="SvgjsLinearGradient1154"><stop stop-color="rgba(45, 45, 45, 0)" offset="0"></stop><stop stop-color="rgba(45, 45, 45, 1)" offset="1"></stop></linearGradient><linearGradient x1="0%" y1="100%" x2="0%" y2="0%" id="SvgjsLinearGradient1155"><stop stop-color="rgba(133, 133, 133, 0)" offset="0"></stop><stop stop-color="rgba(133, 133, 133, 1)" offset="1"></stop></linearGradient><linearGradient x1="0%" y1="0%" x2="0%" y2="100%" id="SvgjsLinearGradient1156"><stop stop-color="rgba(53, 53, 53, 0)" offset="0"></stop><stop stop-color="rgba(53, 53, 53, 1)" offset="1"></stop></linearGradient><linearGradient x1="0%" y1="100%" x2="0%" y2="0%" id="SvgjsLinearGradient1157"><stop stop-color="rgba(73, 73, 73, 0)" offset="0"></stop><stop stop-color="rgba(73, 73, 73, 1)" offset="1"></stop></linearGradient></defs></svg>