<?xml version="1.0" encoding="utf-8"?>
<svg width="1080px" height="1080.0009px" viewBox="0 0 1080 1080.0009" version="1.1" xmlns:xlink="http://www.w3.org/1999/xlink" xmlns="http://www.w3.org/2000/svg">
  <defs>
    <path d="M0 0.000860155L1080 0.000860155L1080 1080L0 1080L0 0.000860155Z" id="path_1" />
    <path d="M0 0L700 0L700 700L0 700L0 0Z" id="path_2" />
    <clipPath id="mask_1">
      <use xlink:href="#path_1" />
    </clipPath>
    <clipPath id="mask_2">
      <use xlink:href="#path_2" />
    </clipPath>
  </defs>
  <g id="LockLogin-Logo">
    <g id="shield">
      <path d="M0 0.000860155L1080 0.000860155L1080 1080L0 1080L0 0.000860155Z" id="Background" fill="#FFFFFF" fill-opacity="0" fill-rule="evenodd" stroke="none" />
      <path d="M540.005 1080C536.509 1080 533.009 1079.46 529.638 1078.38C416.343 1042.09 319.887 972.478 242.944 871.486C182.369 791.975 133.866 693.015 98.7903 577.354C39.6214 382.271 38.9419 208.482 38.9419 201.18C38.9419 183.681 52.234 169.04 69.6544 167.358C72.2775 167.103 336.169 140.013 520.04 6.48381C531.946 -2.16693 548.068 -2.15674 559.974 6.4872C743.793 140.013 1007.72 167.103 1010.36 167.362C1027.77 169.061 1041.06 183.695 1041.06 201.18C1041.06 208.482 1040.38 382.271 981.213 577.358C946.134 693.018 897.634 791.978 837.059 871.49C760.12 972.482 663.664 1042.09 550.368 1078.38C546.998 1079.46 543.501 1080 540.005 1080L540.005 1080ZM107.873 230.988C110.696 288.017 121.674 419.354 164.289 559.183C237.019 797.799 363.402 949.485 540.002 1010.22C717.012 949.35 843.542 797.146 916.18 557.634C958.506 418.073 969.365 287.735 972.148 230.992C896.024 219.885 698.837 182.295 539.998 75.4247C381.145 182.285 184 219.881 107.873 230.988L107.873 230.988Z" id="Group" fill="#25929C" fill-rule="evenodd" stroke="none" />
    </g>
    <g id="lock" transform="translate(190.61993 190.0008)">
      <path d="M0 0L700 0L700 700L0 700L0 0Z" id="Background" fill="#FFFFFF" fill-opacity="0" fill-rule="evenodd" stroke="none" />
      <path d="M350 700C484.508 700 593.939 590.569 593.939 456.061C593.939 392.91 569.815 335.287 530.303 291.923L530.303 180.303C530.303 80.8839 449.419 0 350 0C250.581 0 169.699 80.8839 169.699 180.303L169.699 291.919C130.185 335.287 106.061 392.91 106.061 456.061C106.061 590.569 215.492 700 350 700L350 700ZM381.818 466.637L381.818 509.091C381.818 526.663 367.572 540.909 350 540.909C332.428 540.909 318.182 526.663 318.182 509.091L318.182 466.637C305.31 456.954 296.97 441.556 296.97 424.242C296.97 395.002 320.759 371.212 350 371.212C379.241 371.212 403.03 395.002 403.03 424.242C403.03 441.556 394.69 456.954 381.818 466.637L381.818 466.637ZM233.335 180.303C233.335 115.973 285.672 63.6364 350 63.6364C414.33 63.6364 466.667 115.973 466.667 180.303L466.667 241.88C431.989 222.914 392.233 212.121 350 212.121C307.769 212.121 268.013 222.914 233.335 241.878L233.335 180.303L233.335 180.303Z" id="XMLID_486_" fill="#FDFC01" fill-rule="evenodd" stroke="none" />
    </g>
  </g>
</svg>