<svg xmlns="http://www.w3.org/2000/svg" version="1.1" xmlns:xlink="http://www.w3.org/1999/xlink" xmlns:svgjs="http://svgjs.com/svgjs" width="3840" height="2160" preserveAspectRatio="none" viewBox="0 0 3840 2160"><g mask="url(&quot;#SvgjsMask1039&quot;)" fill="none"><rect width="3840" height="2160" x="0" y="0" fill="rgba(0, 0, 0, 1)"></rect><path d="M1159 278L1158 1896" stroke-width="8" stroke="url(#SvgjsLinearGradient1040)" stroke-linecap="round" class="Down"></path><path d="M2107 1867L2106 1000" stroke-width="10" stroke="url(#SvgjsLinearGradient1041)" stroke-linecap="round" class="Up"></path><path d="M2319 1484L2318 2028" stroke-width="6" stroke="url(#SvgjsLinearGradient1042)" stroke-linecap="round" class="Down"></path><path d="M1413 2008L1412 2932" stroke-width="6" stroke="url(#SvgjsLinearGradient1043)" stroke-linecap="round" class="Up"></path><path d="M702 1725L701 913" stroke-width="10" stroke="url(#SvgjsLinearGradient1043)" stroke-linecap="round" class="Up"></path><path d="M2318 1993L2317 3467" stroke-width="10" stroke="url(#SvgjsLinearGradient1041)" stroke-linecap="round" class="Up"></path><path d="M1691 1760L1690 426" stroke-width="10" stroke="url(#SvgjsLinearGradient1044)" stroke-linecap="round" class="Down"></path><path d="M730 2002L729 860" stroke-width="6" stroke="url(#SvgjsLinearGradient1042)" stroke-linecap="round" class="Down"></path><path d="M2271 1557L2270 2108" stroke-width="10" stroke="url(#SvgjsLinearGradient1045)" stroke-linecap="round" class="Up"></path><path d="M1267 1442L1266 2154" stroke-width="10" stroke="url(#SvgjsLinearGradient1042)" stroke-linecap="round" class="Down"></path><path d="M1714 263L1713 -982" stroke-width="6" stroke="url(#SvgjsLinearGradient1043)" stroke-linecap="round" class="Up"></path><path d="M2594 1583L2593 2524" stroke-width="8" stroke="url(#SvgjsLinearGradient1046)" stroke-linecap="round" class="Up"></path><path d="M1249 756L1248 -128" stroke-width="8" stroke="url(#SvgjsLinearGradient1047)" stroke-linecap="round" class="Down"></path><path d="M2276 1618L2275 2689" stroke-width="8" stroke="url(#SvgjsLinearGradient1046)" stroke-linecap="round" class="Up"></path><path d="M3825 664L3824 -400" stroke-width="10" stroke="url(#SvgjsLinearGradient1047)" stroke-linecap="round" class="Down"></path><path d="M206 1082L205 2268" stroke-width="6" stroke="url(#SvgjsLinearGradient1041)" stroke-linecap="round" class="Up"></path><path d="M799 1269L798 618" stroke-width="10" stroke="url(#SvgjsLinearGradient1043)" stroke-linecap="round" class="Up"></path><path d="M1474 741L1473 1304" stroke-width="8" stroke="url(#SvgjsLinearGradient1040)" stroke-linecap="round" class="Down"></path><path d="M1569 705L1568 1716" stroke-width="8" stroke="url(#SvgjsLinearGradient1048)" stroke-linecap="round" class="Up"></path><path d="M2402 439L2401 1434" stroke-width="6" stroke="url(#SvgjsLinearGradient1047)" stroke-linecap="round" class="Down"></path><path d="M2720 477L2719 1205" stroke-width="6" stroke="url(#SvgjsLinearGradient1043)" stroke-linecap="round" class="Up"></path><path d="M503 55L502 -582" stroke-width="8" stroke="url(#SvgjsLinearGradient1049)" stroke-linecap="round" class="Up"></path><path d="M2966 375L2965 -504" stroke-width="10" stroke="url(#SvgjsLinearGradient1042)" stroke-linecap="round" class="Down"></path><path d="M1217 601L1216 6" stroke-width="8" stroke="url(#SvgjsLinearGradient1042)" stroke-linecap="round" class="Down"></path><path d="M493 1556L492 3134" stroke-width="10" stroke="url(#SvgjsLinearGradient1040)" stroke-linecap="round" class="Down"></path><path d="M2692 843L2691 155" stroke-width="10" stroke="url(#SvgjsLinearGradient1047)" stroke-linecap="round" class="Down"></path><path d="M1833 1477L1832 2728" stroke-width="10" stroke="url(#SvgjsLinearGradient1049)" stroke-linecap="round" class="Up"></path><path d="M334 1167L333 63" stroke-width="6" stroke="url(#SvgjsLinearGradient1050)" stroke-linecap="round" class="Down"></path><path d="M1017 935L1016 142" stroke-width="10" stroke="url(#SvgjsLinearGradient1045)" stroke-linecap="round" class="Up"></path><path d="M2077 1373L2076 2947" stroke-width="6" stroke="url(#SvgjsLinearGradient1043)" stroke-linecap="round" class="Up"></path><path d="M175 700L174 2212" stroke-width="8" stroke="url(#SvgjsLinearGradient1043)" stroke-linecap="round" class="Up"></path><path d="M207 1598L206 339" stroke-width="8" stroke="url(#SvgjsLinearGradient1042)" stroke-linecap="round" class="Down"></path><path d="M442 1030L441 2033" stroke-width="10" stroke="url(#SvgjsLinearGradient1049)" stroke-linecap="round" class="Up"></path><path d="M1840 143L1839 -1153" stroke-width="6" stroke="url(#SvgjsLinearGradient1051)" stroke-linecap="round" class="Down"></path><path d="M1371 372L1370 -459" stroke-width="8" stroke="url(#SvgjsLinearGradient1040)" stroke-linecap="round" class="Down"></path><path d="M2839 38L2838 -1170" stroke-width="10" stroke="url(#SvgjsLinearGradient1044)" stroke-linecap="round" class="Down"></path><path d="M3067 1363L3066 775" stroke-width="6" stroke="url(#SvgjsLinearGradient1049)" stroke-linecap="round" class="Up"></path><path d="M2563 615L2562 2158" stroke-width="8" stroke="url(#SvgjsLinearGradient1046)" stroke-linecap="round" class="Up"></path><path d="M2411 1328L2410 2145" stroke-width="10" stroke="url(#SvgjsLinearGradient1049)" stroke-linecap="round" class="Up"></path><path d="M3042 1011L3041 115" stroke-width="8" stroke="url(#SvgjsLinearGradient1046)" stroke-linecap="round" class="Up"></path><path d="M3834 1759L3833 523" stroke-width="6" stroke="url(#SvgjsLinearGradient1048)" stroke-linecap="round" class="Up"></path><path d="M1193 814L1192 1830" stroke-width="6" stroke="url(#SvgjsLinearGradient1048)" stroke-linecap="round" class="Up"></path><path d="M3114 1380L3113 2574" stroke-width="6" stroke="url(#SvgjsLinearGradient1051)" stroke-linecap="round" class="Down"></path><path d="M22 708L21 1943" stroke-width="8" stroke="url(#SvgjsLinearGradient1047)" stroke-linecap="round" class="Down"></path><path d="M3469 556L3468 1500" stroke-width="8" stroke="url(#SvgjsLinearGradient1046)" stroke-linecap="round" class="Up"></path><path d="M687 98L686 1567" stroke-width="6" stroke="url(#SvgjsLinearGradient1041)" stroke-linecap="round" class="Up"></path><path d="M3326 2084L3325 718" stroke-width="8" stroke="url(#SvgjsLinearGradient1043)" stroke-linecap="round" class="Up"></path><path d="M2190 786L2189 139" stroke-width="6" stroke="url(#SvgjsLinearGradient1041)" stroke-linecap="round" class="Up"></path><path d="M1681 785L1680 -368" stroke-width="10" stroke="url(#SvgjsLinearGradient1041)" stroke-linecap="round" class="Up"></path><path d="M2999 1688L2998 600" stroke-width="10" stroke="url(#SvgjsLinearGradient1051)" stroke-linecap="round" class="Down"></path><path d="M1025 1271L1024 2093" stroke-width="6" stroke="url(#SvgjsLinearGradient1050)" stroke-linecap="round" class="Down"></path><path d="M3614 918L3613 1638" stroke-width="8" stroke="url(#SvgjsLinearGradient1042)" stroke-linecap="round" class="Down"></path><path d="M3679 222L3678 -497" stroke-width="10" stroke="url(#SvgjsLinearGradient1049)" stroke-linecap="round" class="Up"></path><path d="M96 1731L95 2996" stroke-width="6" stroke="url(#SvgjsLinearGradient1044)" stroke-linecap="round" class="Down"></path><path d="M1545 1615L1544 650" stroke-width="6" stroke="url(#SvgjsLinearGradient1044)" stroke-linecap="round" class="Down"></path><path d="M1841 1624L1840 2838" stroke-width="8" stroke="url(#SvgjsLinearGradient1047)" stroke-linecap="round" class="Down"></path><path d="M1275 2083L1274 691" stroke-width="10" stroke="url(#SvgjsLinearGradient1049)" stroke-linecap="round" class="Up"></path><path d="M559 1029L558 -313" stroke-width="10" stroke="url(#SvgjsLinearGradient1050)" stroke-linecap="round" class="Down"></path><path d="M1160 955L1159 2415" stroke-width="8" stroke="url(#SvgjsLinearGradient1045)" stroke-linecap="round" class="Up"></path><path d="M1664 49L1663 1113" stroke-width="8" stroke="url(#SvgjsLinearGradient1040)" stroke-linecap="round" class="Down"></path><path d="M1050 2154L1049 3310" stroke-width="8" stroke="url(#SvgjsLinearGradient1051)" stroke-linecap="round" class="Down"></path><path d="M502 1182L501 269" stroke-width="10" stroke="url(#SvgjsLinearGradient1042)" stroke-linecap="round" class="Down"></path><path d="M1025 897L1024 -146" stroke-width="8" stroke="url(#SvgjsLinearGradient1047)" stroke-linecap="round" class="Down"></path><path d="M614 1937L613 502" stroke-width="10" stroke="url(#SvgjsLinearGradient1045)" stroke-linecap="round" class="Up"></path><path d="M3051 744L3050 1864" stroke-width="8" stroke="url(#SvgjsLinearGradient1048)" stroke-linecap="round" class="Up"></path><path d="M3417 1337L3416 182" stroke-width="8" stroke="url(#SvgjsLinearGradient1050)" stroke-linecap="round" class="Down"></path><path d="M1175 1413L1174 2203" stroke-width="6" stroke="url(#SvgjsLinearGradient1048)" stroke-linecap="round" class="Up"></path><path d="M2924 1666L2923 141" stroke-width="8" stroke="url(#SvgjsLinearGradient1042)" stroke-linecap="round" class="Down"></path><path d="M3326 127L3325 -1096" stroke-width="10" stroke="url(#SvgjsLinearGradient1040)" stroke-linecap="round" class="Down"></path><path d="M1904 1712L1903 198" stroke-width="8" stroke="url(#SvgjsLinearGradient1040)" stroke-linecap="round" class="Down"></path><path d="M509 601L508 1911" stroke-width="6" stroke="url(#SvgjsLinearGradient1047)" stroke-linecap="round" class="Down"></path><path d="M1369 1028L1368 181" stroke-width="10" stroke="url(#SvgjsLinearGradient1044)" stroke-linecap="round" class="Down"></path><path d="M1888 291L1887 -680" stroke-width="8" stroke="url(#SvgjsLinearGradient1045)" stroke-linecap="round" class="Up"></path><path d="M2079 1275L2078 2354" stroke-width="8" stroke="url(#SvgjsLinearGradient1042)" stroke-linecap="round" class="Down"></path><path d="M3772 1020L3771 -29" stroke-width="6" stroke="url(#SvgjsLinearGradient1040)" stroke-linecap="round" class="Down"></path><path d="M2506 317L2505 -672" stroke-width="10" stroke="url(#SvgjsLinearGradient1048)" stroke-linecap="round" class="Up"></path><path d="M1680 2042L1679 2929" stroke-width="6" stroke="url(#SvgjsLinearGradient1042)" stroke-linecap="round" class="Down"></path><path d="M63 476L62 1473" stroke-width="8" stroke="url(#SvgjsLinearGradient1044)" stroke-linecap="round" class="Down"></path><path d="M72 594L71 -808" stroke-width="6" stroke="url(#SvgjsLinearGradient1040)" stroke-linecap="round" class="Down"></path><path d="M1042 1349L1041 -100" stroke-width="10" stroke="url(#SvgjsLinearGradient1048)" stroke-linecap="round" class="Up"></path><path d="M696 1935L695 3277" stroke-width="8" stroke="url(#SvgjsLinearGradient1045)" stroke-linecap="round" class="Up"></path><path d="M2506 608L2505 -218" stroke-width="6" stroke="url(#SvgjsLinearGradient1044)" stroke-linecap="round" class="Down"></path><path d="M233 658L232 1439" stroke-width="6" stroke="url(#SvgjsLinearGradient1048)" stroke-linecap="round" class="Up"></path><path d="M1551 1183L1550 507" stroke-width="6" stroke="url(#SvgjsLinearGradient1049)" stroke-linecap="round" class="Up"></path><path d="M3786 365L3785 -927" stroke-width="6" stroke="url(#SvgjsLinearGradient1050)" stroke-linecap="round" class="Down"></path><path d="M2729 1992L2728 2655" stroke-width="8" stroke="url(#SvgjsLinearGradient1041)" stroke-linecap="round" class="Up"></path><path d="M1002 1782L1001 2787" stroke-width="10" stroke="url(#SvgjsLinearGradient1043)" stroke-linecap="round" class="Up"></path><path d="M1317 541L1316 1119" stroke-width="8" stroke="url(#SvgjsLinearGradient1041)" stroke-linecap="round" class="Up"></path><path d="M856 1710L855 2473" stroke-width="6" stroke="url(#SvgjsLinearGradient1049)" stroke-linecap="round" class="Up"></path><path d="M3309 1521L3308 454" stroke-width="6" stroke="url(#SvgjsLinearGradient1044)" stroke-linecap="round" class="Down"></path><path d="M2276 1050L2275 -467" stroke-width="6" stroke="url(#SvgjsLinearGradient1049)" stroke-linecap="round" class="Up"></path><path d="M2821 1521L2820 20" stroke-width="8" stroke="url(#SvgjsLinearGradient1048)" stroke-linecap="round" class="Up"></path><path d="M805 1743L804 2595" stroke-width="6" stroke="url(#SvgjsLinearGradient1040)" stroke-linecap="round" class="Down"></path><path d="M2612 970L2611 2169" stroke-width="8" stroke="url(#SvgjsLinearGradient1046)" stroke-linecap="round" class="Up"></path><path d="M1600 335L1599 883" stroke-width="6" stroke="url(#SvgjsLinearGradient1046)" stroke-linecap="round" class="Up"></path><path d="M806 1269L805 76" stroke-width="8" stroke="url(#SvgjsLinearGradient1045)" stroke-linecap="round" class="Up"></path></g><defs><mask id="SvgjsMask1039"><rect width="3840" height="2160" fill="#ffffff"></rect></mask><linearGradient x1="0%" y1="0%" x2="0%" y2="100%" id="SvgjsLinearGradient1040"><stop stop-color="rgba(172, 205, 178, 0)" offset="0"></stop><stop stop-color="rgba(172, 205, 178, 1)" offset="1"></stop></linearGradient><linearGradient x1="0%" y1="100%" x2="0%" y2="0%" id="SvgjsLinearGradient1041"><stop stop-color="rgba(172, 205, 178, 0)" offset="0"></stop><stop stop-color="rgba(172, 205, 178, 1)" offset="1"></stop></linearGradient><linearGradient x1="0%" y1="0%" x2="0%" y2="100%" id="SvgjsLinearGradient1042"><stop stop-color="rgba(4, 175, 1, 0)" offset="0"></stop><stop stop-color="rgba(4, 175, 1, 1)" offset="1"></stop></linearGradient><linearGradient x1="0%" y1="100%" x2="0%" y2="0%" id="SvgjsLinearGradient1043"><stop stop-color="rgba(4, 175, 1, 0)" offset="0"></stop><stop stop-color="rgba(4, 175, 1, 1)" offset="1"></stop></linearGradient><linearGradient x1="0%" y1="0%" x2="0%" y2="100%" id="SvgjsLinearGradient1044"><stop stop-color="rgba(23, 162, 46, 0)" offset="0"></stop><stop stop-color="rgba(23, 162, 46, 1)" offset="1"></stop></linearGradient><linearGradient x1="0%" y1="100%" x2="0%" y2="0%" id="SvgjsLinearGradient1045"><stop stop-color="rgba(23, 162, 46, 0)" offset="0"></stop><stop stop-color="rgba(23, 162, 46, 1)" offset="1"></stop></linearGradient><linearGradient x1="0%" y1="100%" x2="0%" y2="0%" id="SvgjsLinearGradient1046"><stop stop-color="rgba(2, 135, 24, 0)" offset="0"></stop><stop stop-color="rgba(2, 135, 24, 1)" offset="1"></stop></linearGradient><linearGradient x1="0%" y1="0%" x2="0%" y2="100%" id="SvgjsLinearGradient1047"><stop stop-color="rgba(5, 221, 40, 0)" offset="0"></stop><stop stop-color="rgba(5, 221, 40, 1)" offset="1"></stop></linearGradient><linearGradient x1="0%" y1="100%" x2="0%" y2="0%" id="SvgjsLinearGradient1048"><stop stop-color="rgba(62, 255, 94, 0)" offset="0"></stop><stop stop-color="rgba(62, 255, 94, 1)" offset="1"></stop></linearGradient><linearGradient x1="0%" y1="100%" x2="0%" y2="0%" id="SvgjsLinearGradient1049"><stop stop-color="rgba(5, 221, 40, 0)" offset="0"></stop><stop stop-color="rgba(5, 221, 40, 1)" offset="1"></stop></linearGradient><linearGradient x1="0%" y1="0%" x2="0%" y2="100%" id="SvgjsLinearGradient1050"><stop stop-color="rgba(2, 135, 24, 0)" offset="0"></stop><stop stop-color="rgba(2, 135, 24, 1)" offset="1"></stop></linearGradient><linearGradient x1="0%" y1="0%" x2="0%" y2="100%" id="SvgjsLinearGradient1051"><stop stop-color="rgba(62, 255, 94, 0)" offset="0"></stop><stop stop-color="rgba(62, 255, 94, 1)" offset="1"></stop></linearGradient></defs></svg>