<?xml version="1.0" encoding="utf-8"?>
<svg width="1024px" height="1024px" viewBox="0 0 1024 1024" version="1.1" xmlns:xlink="http://www.w3.org/1999/xlink" xmlns="http://www.w3.org/2000/svg">
  <defs>
    <path d="M1024 0L1024 0L1024 1024L0 1024L0 0L1024 0Z" id="path_1" />
    <clipPath id="clip_1">
      <use xlink:href="#path_1" clip-rule="evenodd" fill-rule="evenodd" />
    </clipPath>
  </defs>
  <g id="ims-cloud-logo" clip-path="url(#clip_1)">
    <path d="M1024 0L1024 0L1024 1024L0 1024L0 0L1024 0Z" id="ims-cloud-logo" fill="none" stroke="none" />
    <path d="M459.125 252.585C406.423 260.797 362.955 282.367 327.402 317.95C308.459 336.908 297.962 351.803 285.668 377.172C278.656 391.643 271.728 412.04 273.01 414.433C273.235 414.853 281.29 415.327 290.911 415.484C300.529 415.643 311.691 416.291 315.714 416.927L323.03 418.085L325.038 413.145C342.46 370.309 369.588 339.579 406.797 320.528C433.565 306.825 456.746 301.011 484.617 301.011C503.418 301.011 518.411 303.529 537.129 309.828C553.022 315.178 559.67 315.761 566.7 312.425C582.101 305.117 583.556 285.633 569.706 272.145C562.353 264.982 563.277 263.935 573.202 268.189C576.645 269.665 579.461 270.379 579.461 269.778C579.461 269.176 573.776 266.762 566.829 264.412C530.308 252.06 490.527 247.692 459.125 252.585M257.876 457.576C250.92 458.697 228.231 464.63 220.323 467.397C185.018 479.747 155.216 502.794 133.251 534.737C122.564 550.275 111.896 576.516 108.91 594.602C106.649 608.299 106.4 631.916 108.405 642.754C109.186 646.982 110.09 652.164 110.413 654.271C111.784 663.193 112.742 667.504 113.96 670.227C115.226 673.059 115.241 673.055 114.66 670.048C113.751 665.34 115.471 666.367 119.695 673.052C128.241 686.58 140.458 693.542 154.119 692.673C160.847 692.244 163.705 691.319 167.684 688.284C170.458 686.17 173.08 683.517 173.512 682.387C173.945 681.259 172.098 675.949 169.406 670.584C160.91 653.654 159.535 647.02 159.735 623.961C159.875 608.04 160.538 601.154 162.715 593.04C173.863 551.493 210.947 518.544 257.081 509.197C265.99 507.392 272.806 507.037 287.784 507.599C308.503 508.376 313.255 509.467 330.341 517.362C344.096 523.716 349.76 524.598 357.604 521.602C365.692 518.513 370.75 511.859 371.58 503.212C372.521 493.42 369.853 487.246 360.869 478.427C353.705 471.396 351.691 470.266 339.556 466.46C313.259 458.213 310.928 457.817 285.869 457.356C272.726 457.114 260.129 457.214 257.876 457.576M764.492 459.03C752.182 459.711 752.381 459.438 756.526 469.955C758.532 475.048 761.814 485.666 763.822 493.552L767.47 507.89L776.906 508.746C806.43 511.427 834.694 531.324 853.389 562.59C863.164 578.938 869.126 583.81 880.509 584.754C892.889 585.781 900.801 581.287 906.444 570.022C909.964 562.995 909.819 562.093 902.676 546.646C888.267 515.484 858.858 486.189 827.421 471.68C807.874 462.659 784.346 457.929 764.492 459.03" id="Shape" fill="#F9E8D0" fill-rule="evenodd" stroke="none" />
    <path d="M569.707 272.145C583.556 285.634 582.102 305.117 566.7 312.425C559.67 315.761 553.023 315.178 537.129 309.828C518.412 303.529 503.418 301.011 484.617 301.011C456.747 301.011 433.565 306.825 406.798 320.529C371.056 338.827 344.469 367.922 327.711 407.073L322.941 418.218L333.423 420.511C379.125 430.508 413.447 448.547 447.662 480.554C452.905 485.459 457.813 489.266 458.568 489.015C459.323 488.763 461.297 483.675 462.953 477.708C470.608 450.134 497.343 416.754 524.46 400.917C538.121 392.939 558.94 384.986 575.365 381.471C594.882 377.296 626.17 377.237 644.554 381.343C666.179 386.173 689.435 397.447 710.202 413.17C713.39 415.583 716.442 417.112 716.985 416.567C719.268 414.284 708.43 389.848 695.718 368.622C677.091 337.515 653.289 312.535 622.137 291.399C610.332 283.389 582.658 269.214 580.362 270.002C579.491 270.301 576.116 269.412 572.861 268.026C563.278 263.946 562.429 265.055 569.707 272.145M589.019 423.989C572.287 426.466 551.597 435.76 536.697 447.491C524.727 456.915 510.11 478.82 506.483 492.769C503.818 503.024 505.245 508.983 511.915 515.449L516.797 520.18L618.795 520.18L720.794 520.18L721.22 517.191C722.001 511.7 713.52 487.678 706.85 476.493C699.272 463.779 683.598 447.615 670.705 439.215C650.146 425.82 617.611 419.756 589.019 423.989M362.049 479.614C369.801 487.164 372.484 493.808 371.58 503.212C370.75 511.859 365.692 518.513 357.604 521.602C349.76 524.598 344.096 523.716 330.341 517.362C313.255 509.468 308.503 508.377 287.784 507.6C272.806 507.037 265.99 507.392 257.081 509.197C210.947 518.544 173.863 551.494 162.715 593.04C160.538 601.154 159.875 608.041 159.735 623.962C159.535 647.02 160.91 653.654 169.406 670.584C172.098 675.949 173.945 681.26 173.512 682.388C173.08 683.517 170.458 686.17 167.684 688.284C163.705 691.32 160.847 692.244 154.119 692.673C140.458 693.543 128.241 686.58 119.695 673.053C115.148 665.855 113.698 665.329 115.178 671.414C119.953 691.064 135.485 717.175 151.602 732.648C173.228 753.411 196.585 766.112 225.529 772.848C238.213 775.8 781.914 775.87 798.666 772.922C839.586 765.72 877.79 737.747 897.473 700.575C900.596 694.676 901.348 692.058 900.286 690.779C899.117 689.371 841.339 689.01 602.159 688.918C281.995 688.795 298.546 689.161 284.31 681.897C276.644 677.988 260.822 661.842 256.78 653.804C249.407 639.142 247.265 629.898 247.906 615.494C248.406 604.265 249.218 600.416 252.961 591.563C260.248 574.325 275.215 563.17 291.034 563.188C298.942 563.198 304.842 565.895 310.129 571.915C313.874 576.18 314.546 578.006 314.546 583.917C314.546 590.272 314.102 591.262 309.511 595.135C295.001 607.377 294.062 608.707 294.062 617.041C294.062 621.297 294.932 626.439 295.995 628.468C298.632 633.5 306.214 640.554 310.879 642.313C313.39 643.259 336.956 643.762 378.859 643.762C433.658 643.762 443.73 643.455 448.052 641.648C459.651 636.803 464.68 627.939 464.725 612.264C464.768 597.889 462.651 587.902 456.36 572.782C439.874 533.16 416.933 506.717 379.604 484.306C369.238 478.083 358.676 473.069 355.932 473.069C355.601 473.069 358.354 476.015 362.049 479.614M764.999 518.815C764.306 539.418 762.481 544.323 751.556 554.965C739.759 566.457 746.208 565.926 618.368 565.926C518.456 565.926 505.925 566.16 505.206 568.029C504.763 569.186 505.917 575.369 507.772 581.769C509.627 588.171 511.761 599.923 512.516 607.884C514.502 628.848 519.515 637.089 533.462 642.32C536.092 643.308 596.773 643.762 725.631 643.762L913.955 643.762L916.158 640.399C918.014 637.568 918.271 633.741 917.786 616.161C917.315 599.097 916.501 592.452 913.329 579.766L909.448 564.247L906.404 570.207C900.733 581.316 892.798 585.774 880.508 584.755C869.125 583.811 863.163 578.939 853.388 562.59C834.673 531.293 806.411 511.412 776.84 508.747C768.169 507.966 767.264 507.593 766.467 504.477C765.988 502.599 765.327 509.051 764.999 518.815" id="Shape" fill="#FA5805" fill-rule="evenodd" stroke="none" />
  </g>
</svg>