<svg xmlns="http://www.w3.org/2000/svg" version="1.1" xmlns:xlink="http://www.w3.org/1999/xlink" xmlns:svgjs="http://svgjs.com/svgjs" width="2000" height="560" preserveAspectRatio="none" viewBox="0 0 2000 560"><g mask="url(&quot;#SvgjsMask2627&quot;)" fill="none"><rect width="2000" height="560" x="0" y="0" fill="rgba(0, 0, 0, 1)"></rect><path d="M1885 130L1884 527" stroke-width="10" stroke="url(#SvgjsLinearGradient2628)" stroke-linecap="round" class="Down"></path><path d="M592 405L591 104" stroke-width="8" stroke="url(#SvgjsLinearGradient2629)" stroke-linecap="round" class="Down"></path><path d="M1526 510L1525 757" stroke-width="8" stroke="url(#SvgjsLinearGradient2628)" stroke-linecap="round" class="Down"></path><path d="M803 464L802 721" stroke-width="6" stroke="url(#SvgjsLinearGradient2628)" stroke-linecap="round" class="Down"></path><path d="M1872 305L1871 642" stroke-width="8" stroke="url(#SvgjsLinearGradient2630)" stroke-linecap="round" class="Up"></path><path d="M1081 239L1080 658" stroke-width="10" stroke="url(#SvgjsLinearGradient2631)" stroke-linecap="round" class="Down"></path><path d="M650 410L649 809" stroke-width="6" stroke="url(#SvgjsLinearGradient2632)" stroke-linecap="round" class="Up"></path><path d="M479 89L478 502" stroke-width="6" stroke="url(#SvgjsLinearGradient2633)" stroke-linecap="round" class="Down"></path><path d="M1909 197L1908 520" stroke-width="8" stroke="url(#SvgjsLinearGradient2634)" stroke-linecap="round" class="Up"></path><path d="M392 278L391 467" stroke-width="10" stroke="url(#SvgjsLinearGradient2628)" stroke-linecap="round" class="Down"></path><path d="M1701 266L1700 655" stroke-width="6" stroke="url(#SvgjsLinearGradient2629)" stroke-linecap="round" class="Down"></path><path d="M418 36L417 -131" stroke-width="6" stroke="url(#SvgjsLinearGradient2635)" stroke-linecap="round" class="Down"></path><path d="M1885 337L1884 499" stroke-width="10" stroke="url(#SvgjsLinearGradient2634)" stroke-linecap="round" class="Up"></path><path d="M1959 298L1958 142" stroke-width="8" stroke="url(#SvgjsLinearGradient2630)" stroke-linecap="round" class="Up"></path><path d="M1598 231L1597 20" stroke-width="6" stroke="url(#SvgjsLinearGradient2635)" stroke-linecap="round" class="Down"></path><path d="M52 365L51 562" stroke-width="8" stroke="url(#SvgjsLinearGradient2629)" stroke-linecap="round" class="Down"></path><path d="M680 418L679 617" stroke-width="8" stroke="url(#SvgjsLinearGradient2636)" stroke-linecap="round" class="Up"></path><path d="M885 350L884 677" stroke-width="8" stroke="url(#SvgjsLinearGradient2637)" stroke-linecap="round" class="Up"></path><path d="M1634 148L1633 382" stroke-width="8" stroke="url(#SvgjsLinearGradient2636)" stroke-linecap="round" class="Up"></path><path d="M1085 55L1084 325" stroke-width="6" stroke="url(#SvgjsLinearGradient2630)" stroke-linecap="round" class="Up"></path><path d="M1316 354L1315 -17" stroke-width="6" stroke="url(#SvgjsLinearGradient2636)" stroke-linecap="round" class="Up"></path><path d="M1654 481L1653 863" stroke-width="10" stroke="url(#SvgjsLinearGradient2635)" stroke-linecap="round" class="Down"></path><path d="M552 415L551 666" stroke-width="8" stroke="url(#SvgjsLinearGradient2631)" stroke-linecap="round" class="Down"></path><path d="M429 507L428 127" stroke-width="8" stroke="url(#SvgjsLinearGradient2635)" stroke-linecap="round" class="Down"></path><path d="M1282 541L1281 959" stroke-width="8" stroke="url(#SvgjsLinearGradient2632)" stroke-linecap="round" class="Up"></path><path d="M311 279L310 432" stroke-width="10" stroke="url(#SvgjsLinearGradient2638)" stroke-linecap="round" class="Down"></path><path d="M34 423L33 197" stroke-width="10" stroke="url(#SvgjsLinearGradient2629)" stroke-linecap="round" class="Down"></path><path d="M1306 131L1305 376" stroke-width="8" stroke="url(#SvgjsLinearGradient2632)" stroke-linecap="round" class="Up"></path><path d="M552 141L551 -185" stroke-width="10" stroke="url(#SvgjsLinearGradient2634)" stroke-linecap="round" class="Up"></path><path d="M809 519L808 910" stroke-width="8" stroke="url(#SvgjsLinearGradient2631)" stroke-linecap="round" class="Down"></path><path d="M3 173L2 -105" stroke-width="8" stroke="url(#SvgjsLinearGradient2629)" stroke-linecap="round" class="Down"></path><path d="M1791 168L1790 566" stroke-width="8" stroke="url(#SvgjsLinearGradient2636)" stroke-linecap="round" class="Up"></path><path d="M1875 1L1874 357" stroke-width="6" stroke="url(#SvgjsLinearGradient2633)" stroke-linecap="round" class="Down"></path><path d="M36 377L35 752" stroke-width="6" stroke="url(#SvgjsLinearGradient2634)" stroke-linecap="round" class="Up"></path><path d="M910 228L909 -82" stroke-width="10" stroke="url(#SvgjsLinearGradient2629)" stroke-linecap="round" class="Down"></path><path d="M366 393L365 753" stroke-width="10" stroke="url(#SvgjsLinearGradient2632)" stroke-linecap="round" class="Up"></path><path d="M1181 4L1180 -346" stroke-width="10" stroke="url(#SvgjsLinearGradient2638)" stroke-linecap="round" class="Down"></path><path d="M1876 454L1875 743" stroke-width="6" stroke="url(#SvgjsLinearGradient2639)" stroke-linecap="round" class="Up"></path><path d="M1320 336L1319 520" stroke-width="6" stroke="url(#SvgjsLinearGradient2639)" stroke-linecap="round" class="Up"></path><path d="M1564 240L1563 0" stroke-width="10" stroke="url(#SvgjsLinearGradient2636)" stroke-linecap="round" class="Up"></path><path d="M1478 453L1477 307" stroke-width="6" stroke="url(#SvgjsLinearGradient2633)" stroke-linecap="round" class="Down"></path><path d="M641 82L640 -286" stroke-width="8" stroke="url(#SvgjsLinearGradient2636)" stroke-linecap="round" class="Up"></path><path d="M255 127L254 -145" stroke-width="6" stroke="url(#SvgjsLinearGradient2629)" stroke-linecap="round" class="Down"></path><path d="M1106 418L1105 3" stroke-width="6" stroke="url(#SvgjsLinearGradient2635)" stroke-linecap="round" class="Down"></path><path d="M86 379L85 786" stroke-width="8" stroke="url(#SvgjsLinearGradient2636)" stroke-linecap="round" class="Up"></path><path d="M106 116L105 461" stroke-width="6" stroke="url(#SvgjsLinearGradient2628)" stroke-linecap="round" class="Down"></path><path d="M156 269L155 -52" stroke-width="10" stroke="url(#SvgjsLinearGradient2628)" stroke-linecap="round" class="Down"></path><path d="M1305 424L1304 591" stroke-width="8" stroke="url(#SvgjsLinearGradient2631)" stroke-linecap="round" class="Down"></path><path d="M555 181L554 496" stroke-width="10" stroke="url(#SvgjsLinearGradient2628)" stroke-linecap="round" class="Down"></path><path d="M1555 195L1554 460" stroke-width="10" stroke="url(#SvgjsLinearGradient2630)" stroke-linecap="round" class="Up"></path></g><defs><mask id="SvgjsMask2627"><rect width="2000" height="560" fill="#ffffff"></rect></mask><linearGradient x1="0%" y1="0%" x2="0%" y2="100%" id="SvgjsLinearGradient2628"><stop stop-color="rgba(23, 162, 46, 0)" offset="0"></stop><stop stop-color="rgba(23, 162, 46, 1)" offset="1"></stop></linearGradient><linearGradient x1="0%" y1="0%" x2="0%" y2="100%" id="SvgjsLinearGradient2629"><stop stop-color="rgba(5, 221, 40, 0)" offset="0"></stop><stop stop-color="rgba(5, 221, 40, 1)" offset="1"></stop></linearGradient><linearGradient x1="0%" y1="100%" x2="0%" y2="0%" id="SvgjsLinearGradient2630"><stop stop-color="rgba(5, 221, 40, 0)" offset="0"></stop><stop stop-color="rgba(5, 221, 40, 1)" offset="1"></stop></linearGradient><linearGradient x1="0%" y1="0%" x2="0%" y2="100%" id="SvgjsLinearGradient2631"><stop stop-color="rgba(62, 255, 94, 0)" offset="0"></stop><stop stop-color="rgba(62, 255, 94, 1)" offset="1"></stop></linearGradient><linearGradient x1="0%" y1="100%" x2="0%" y2="0%" id="SvgjsLinearGradient2632"><stop stop-color="rgba(2, 135, 24, 0)" offset="0"></stop><stop stop-color="rgba(2, 135, 24, 1)" offset="1"></stop></linearGradient><linearGradient x1="0%" y1="0%" x2="0%" y2="100%" id="SvgjsLinearGradient2633"><stop stop-color="rgba(172, 205, 178, 0)" offset="0"></stop><stop stop-color="rgba(172, 205, 178, 1)" offset="1"></stop></linearGradient><linearGradient x1="0%" y1="100%" x2="0%" y2="0%" id="SvgjsLinearGradient2634"><stop stop-color="rgba(172, 205, 178, 0)" offset="0"></stop><stop stop-color="rgba(172, 205, 178, 1)" offset="1"></stop></linearGradient><linearGradient x1="0%" y1="0%" x2="0%" y2="100%" id="SvgjsLinearGradient2635"><stop stop-color="rgba(4, 175, 1, 0)" offset="0"></stop><stop stop-color="rgba(4, 175, 1, 1)" offset="1"></stop></linearGradient><linearGradient x1="0%" y1="100%" x2="0%" y2="0%" id="SvgjsLinearGradient2636"><stop stop-color="rgba(62, 255, 94, 0)" offset="0"></stop><stop stop-color="rgba(62, 255, 94, 1)" offset="1"></stop></linearGradient><linearGradient x1="0%" y1="100%" x2="0%" y2="0%" id="SvgjsLinearGradient2637"><stop stop-color="rgba(23, 162, 46, 0)" offset="0"></stop><stop stop-color="rgba(23, 162, 46, 1)" offset="1"></stop></linearGradient><linearGradient x1="0%" y1="0%" x2="0%" y2="100%" id="SvgjsLinearGradient2638"><stop stop-color="rgba(2, 135, 24, 0)" offset="0"></stop><stop stop-color="rgba(2, 135, 24, 1)" offset="1"></stop></linearGradient><linearGradient x1="0%" y1="100%" x2="0%" y2="0%" id="SvgjsLinearGradient2639"><stop stop-color="rgba(4, 175, 1, 0)" offset="0"></stop><stop stop-color="rgba(4, 175, 1, 1)" offset="1"></stop></linearGradient></defs></svg>