<svg xmlns="http://www.w3.org/2000/svg" version="1.1" xmlns:xlink="http://www.w3.org/1999/xlink" xmlns:svgjs="http://svgjs.com/svgjs" width="3840" height="2160" preserveAspectRatio="none" viewBox="0 0 3840 2160"><g mask="url(&quot;#SvgjsMask1478&quot;)" fill="none"><rect width="3840" height="2160" x="0" y="0" fill="rgba(0, 0, 0, 1)"></rect><path d="M3157 1787L3156 3315" stroke-width="6" stroke="url(#SvgjsLinearGradient1479)" stroke-linecap="round" class="Down"></path><path d="M3298 1551L3297 648" stroke-width="6" stroke="url(#SvgjsLinearGradient1480)" stroke-linecap="round" class="Down"></path><path d="M1093 481L1092 -1079" stroke-width="6" stroke="url(#SvgjsLinearGradient1481)" stroke-linecap="round" class="Down"></path><path d="M3795 982L3794 2256" stroke-width="10" stroke="url(#SvgjsLinearGradient1482)" stroke-linecap="round" class="Up"></path><path d="M1485 206L1484 -615" stroke-width="6" stroke="url(#SvgjsLinearGradient1480)" stroke-linecap="round" class="Down"></path><path d="M1600 675L1599 43" stroke-width="6" stroke="url(#SvgjsLinearGradient1483)" stroke-linecap="round" class="Down"></path><path d="M3317 913L3316 -356" stroke-width="6" stroke="url(#SvgjsLinearGradient1479)" stroke-linecap="round" class="Down"></path><path d="M3208 2043L3207 1339" stroke-width="6" stroke="url(#SvgjsLinearGradient1479)" stroke-linecap="round" class="Down"></path><path d="M79 239L78 1760" stroke-width="8" stroke="url(#SvgjsLinearGradient1484)" stroke-linecap="round" class="Up"></path><path d="M1040 117L1039 -459" stroke-width="6" stroke="url(#SvgjsLinearGradient1485)" stroke-linecap="round" class="Up"></path><path d="M1088 818L1087 1520" stroke-width="10" stroke="url(#SvgjsLinearGradient1485)" stroke-linecap="round" class="Up"></path><path d="M2950 1103L2949 410" stroke-width="8" stroke="url(#SvgjsLinearGradient1486)" stroke-linecap="round" class="Down"></path><path d="M23 886L22 2280" stroke-width="10" stroke="url(#SvgjsLinearGradient1480)" stroke-linecap="round" class="Down"></path><path d="M899 1720L898 2472" stroke-width="10" stroke="url(#SvgjsLinearGradient1480)" stroke-linecap="round" class="Down"></path><path d="M2869 1651L2868 225" stroke-width="8" stroke="url(#SvgjsLinearGradient1485)" stroke-linecap="round" class="Up"></path><path d="M192 1597L191 2380" stroke-width="8" stroke="url(#SvgjsLinearGradient1486)" stroke-linecap="round" class="Down"></path><path d="M3170 1820L3169 3415" stroke-width="6" stroke="url(#SvgjsLinearGradient1485)" stroke-linecap="round" class="Up"></path><path d="M2554 1232L2553 -148" stroke-width="8" stroke="url(#SvgjsLinearGradient1480)" stroke-linecap="round" class="Down"></path><path d="M980 2147L979 1308" stroke-width="6" stroke="url(#SvgjsLinearGradient1487)" stroke-linecap="round" class="Up"></path><path d="M3819 1731L3818 820" stroke-width="10" stroke="url(#SvgjsLinearGradient1480)" stroke-linecap="round" class="Down"></path><path d="M139 1566L138 97" stroke-width="6" stroke="url(#SvgjsLinearGradient1483)" stroke-linecap="round" class="Down"></path><path d="M1699 103L1698 -1275" stroke-width="8" stroke="url(#SvgjsLinearGradient1480)" stroke-linecap="round" class="Down"></path><path d="M1965 2059L1964 940" stroke-width="10" stroke="url(#SvgjsLinearGradient1486)" stroke-linecap="round" class="Down"></path><path d="M2147 1034L2146 2634" stroke-width="10" stroke="url(#SvgjsLinearGradient1481)" stroke-linecap="round" class="Down"></path><path d="M247 790L246 1366" stroke-width="10" stroke="url(#SvgjsLinearGradient1483)" stroke-linecap="round" class="Down"></path><path d="M3204 2012L3203 3525" stroke-width="8" stroke="url(#SvgjsLinearGradient1482)" stroke-linecap="round" class="Up"></path><path d="M1279 735L1278 1556" stroke-width="6" stroke="url(#SvgjsLinearGradient1480)" stroke-linecap="round" class="Down"></path><path d="M824 1018L823 165" stroke-width="6" stroke="url(#SvgjsLinearGradient1481)" stroke-linecap="round" class="Down"></path><path d="M2985 1991L2984 1293" stroke-width="6" stroke="url(#SvgjsLinearGradient1486)" stroke-linecap="round" class="Down"></path><path d="M2130 1970L2129 1055" stroke-width="10" stroke="url(#SvgjsLinearGradient1488)" stroke-linecap="round" class="Up"></path><path d="M936 725L935 2087" stroke-width="8" stroke="url(#SvgjsLinearGradient1483)" stroke-linecap="round" class="Down"></path><path d="M486 1965L485 658" stroke-width="8" stroke="url(#SvgjsLinearGradient1482)" stroke-linecap="round" class="Up"></path><path d="M3684 78L3683 -811" stroke-width="10" stroke="url(#SvgjsLinearGradient1484)" stroke-linecap="round" class="Up"></path><path d="M2114 1640L2113 2323" stroke-width="6" stroke="url(#SvgjsLinearGradient1481)" stroke-linecap="round" class="Down"></path><path d="M3662 1693L3661 2462" stroke-width="6" stroke="url(#SvgjsLinearGradient1488)" stroke-linecap="round" class="Up"></path><path d="M1550 1271L1549 -77" stroke-width="6" stroke="url(#SvgjsLinearGradient1487)" stroke-linecap="round" class="Up"></path><path d="M3596 2137L3595 3681" stroke-width="8" stroke="url(#SvgjsLinearGradient1486)" stroke-linecap="round" class="Down"></path><path d="M1403 1079L1402 -235" stroke-width="6" stroke="url(#SvgjsLinearGradient1483)" stroke-linecap="round" class="Down"></path><path d="M782 823L781 2149" stroke-width="10" stroke="url(#SvgjsLinearGradient1482)" stroke-linecap="round" class="Up"></path><path d="M1250 221L1249 -954" stroke-width="8" stroke="url(#SvgjsLinearGradient1482)" stroke-linecap="round" class="Up"></path><path d="M839 1366L838 158" stroke-width="6" stroke="url(#SvgjsLinearGradient1482)" stroke-linecap="round" class="Up"></path><path d="M636 1988L635 1239" stroke-width="6" stroke="url(#SvgjsLinearGradient1488)" stroke-linecap="round" class="Up"></path><path d="M196 1059L195 2087" stroke-width="10" stroke="url(#SvgjsLinearGradient1485)" stroke-linecap="round" class="Up"></path><path d="M2568 1583L2567 92" stroke-width="6" stroke="url(#SvgjsLinearGradient1480)" stroke-linecap="round" class="Down"></path><path d="M3476 1808L3475 2388" stroke-width="10" stroke="url(#SvgjsLinearGradient1479)" stroke-linecap="round" class="Down"></path><path d="M1153 1000L1152 -52" stroke-width="8" stroke="url(#SvgjsLinearGradient1484)" stroke-linecap="round" class="Up"></path><path d="M636 1723L635 2451" stroke-width="10" stroke="url(#SvgjsLinearGradient1482)" stroke-linecap="round" class="Up"></path><path d="M3053 1930L3052 2618" stroke-width="8" stroke="url(#SvgjsLinearGradient1482)" stroke-linecap="round" class="Up"></path><path d="M1497 1362L1496 -141" stroke-width="6" stroke="url(#SvgjsLinearGradient1480)" stroke-linecap="round" class="Down"></path><path d="M2853 595L2852 2077" stroke-width="6" stroke="url(#SvgjsLinearGradient1487)" stroke-linecap="round" class="Up"></path><path d="M1462 2050L1461 3199" stroke-width="6" stroke="url(#SvgjsLinearGradient1482)" stroke-linecap="round" class="Up"></path><path d="M2688 1014L2687 1894" stroke-width="6" stroke="url(#SvgjsLinearGradient1480)" stroke-linecap="round" class="Down"></path><path d="M3315 655L3314 1376" stroke-width="8" stroke="url(#SvgjsLinearGradient1484)" stroke-linecap="round" class="Up"></path><path d="M2376 2146L2375 2724" stroke-width="6" stroke="url(#SvgjsLinearGradient1488)" stroke-linecap="round" class="Up"></path><path d="M256 28L255 931" stroke-width="10" stroke="url(#SvgjsLinearGradient1479)" stroke-linecap="round" class="Down"></path><path d="M3047 1965L3046 1004" stroke-width="6" stroke="url(#SvgjsLinearGradient1481)" stroke-linecap="round" class="Down"></path><path d="M1863 197L1862 -494" stroke-width="10" stroke="url(#SvgjsLinearGradient1488)" stroke-linecap="round" class="Up"></path><path d="M3117 136L3116 -1014" stroke-width="10" stroke="url(#SvgjsLinearGradient1479)" stroke-linecap="round" class="Down"></path><path d="M1419 1850L1418 3294" stroke-width="8" stroke="url(#SvgjsLinearGradient1481)" stroke-linecap="round" class="Down"></path><path d="M490 419L489 -312" stroke-width="10" stroke="url(#SvgjsLinearGradient1487)" stroke-linecap="round" class="Up"></path><path d="M2940 1457L2939 2509" stroke-width="6" stroke="url(#SvgjsLinearGradient1485)" stroke-linecap="round" class="Up"></path><path d="M2602 1284L2601 618" stroke-width="8" stroke="url(#SvgjsLinearGradient1485)" stroke-linecap="round" class="Up"></path><path d="M3592 1807L3591 1262" stroke-width="10" stroke="url(#SvgjsLinearGradient1485)" stroke-linecap="round" class="Up"></path><path d="M507 1452L506 3025" stroke-width="10" stroke="url(#SvgjsLinearGradient1482)" stroke-linecap="round" class="Up"></path><path d="M3233 277L3232 1740" stroke-width="10" stroke="url(#SvgjsLinearGradient1482)" stroke-linecap="round" class="Up"></path><path d="M1848 347L1847 -1017" stroke-width="10" stroke="url(#SvgjsLinearGradient1484)" stroke-linecap="round" class="Up"></path><path d="M2900 1440L2899 2156" stroke-width="6" stroke="url(#SvgjsLinearGradient1480)" stroke-linecap="round" class="Down"></path><path d="M917 988L916 1805" stroke-width="10" stroke="url(#SvgjsLinearGradient1482)" stroke-linecap="round" class="Up"></path><path d="M3354 1558L3353 2788" stroke-width="8" stroke="url(#SvgjsLinearGradient1482)" stroke-linecap="round" class="Up"></path><path d="M3114 1522L3113 574" stroke-width="10" stroke="url(#SvgjsLinearGradient1480)" stroke-linecap="round" class="Down"></path><path d="M89 1953L88 698" stroke-width="6" stroke="url(#SvgjsLinearGradient1487)" stroke-linecap="round" class="Up"></path><path d="M1124 2088L1123 643" stroke-width="6" stroke="url(#SvgjsLinearGradient1483)" stroke-linecap="round" class="Down"></path><path d="M3323 1425L3322 464" stroke-width="10" stroke="url(#SvgjsLinearGradient1482)" stroke-linecap="round" class="Up"></path><path d="M733 289L732 1443" stroke-width="10" stroke="url(#SvgjsLinearGradient1482)" stroke-linecap="round" class="Up"></path><path d="M1361 56L1360 677" stroke-width="6" stroke="url(#SvgjsLinearGradient1484)" stroke-linecap="round" class="Up"></path><path d="M802 1704L801 718" stroke-width="8" stroke="url(#SvgjsLinearGradient1480)" stroke-linecap="round" class="Down"></path><path d="M1500 1822L1499 774" stroke-width="10" stroke="url(#SvgjsLinearGradient1488)" stroke-linecap="round" class="Up"></path><path d="M1163 953L1162 -494" stroke-width="8" stroke="url(#SvgjsLinearGradient1484)" stroke-linecap="round" class="Up"></path><path d="M1496 2073L1495 911" stroke-width="8" stroke="url(#SvgjsLinearGradient1486)" stroke-linecap="round" class="Down"></path><path d="M1183 814L1182 1975" stroke-width="6" stroke="url(#SvgjsLinearGradient1479)" stroke-linecap="round" class="Down"></path><path d="M2298 743L2297 2234" stroke-width="6" stroke="url(#SvgjsLinearGradient1479)" stroke-linecap="round" class="Down"></path><path d="M2942 1156L2941 -320" stroke-width="8" stroke="url(#SvgjsLinearGradient1487)" stroke-linecap="round" class="Up"></path><path d="M3511 97L3510 1531" stroke-width="8" stroke="url(#SvgjsLinearGradient1479)" stroke-linecap="round" class="Down"></path><path d="M2316 1860L2315 521" stroke-width="8" stroke="url(#SvgjsLinearGradient1482)" stroke-linecap="round" class="Up"></path><path d="M1096 1717L1095 139" stroke-width="6" stroke="url(#SvgjsLinearGradient1480)" stroke-linecap="round" class="Down"></path><path d="M7 807L6 1363" stroke-width="8" stroke="url(#SvgjsLinearGradient1484)" stroke-linecap="round" class="Up"></path><path d="M61 1223L60 2717" stroke-width="8" stroke="url(#SvgjsLinearGradient1484)" stroke-linecap="round" class="Up"></path><path d="M3581 352L3580 989" stroke-width="10" stroke="url(#SvgjsLinearGradient1484)" stroke-linecap="round" class="Up"></path><path d="M1328 1160L1327 2697" stroke-width="8" stroke="url(#SvgjsLinearGradient1485)" stroke-linecap="round" class="Up"></path><path d="M980 2103L979 1548" stroke-width="8" stroke="url(#SvgjsLinearGradient1482)" stroke-linecap="round" class="Up"></path><path d="M1816 50L1815 -1191" stroke-width="10" stroke="url(#SvgjsLinearGradient1487)" stroke-linecap="round" class="Up"></path><path d="M3484 1397L3483 2696" stroke-width="6" stroke="url(#SvgjsLinearGradient1486)" stroke-linecap="round" class="Down"></path><path d="M1086 1429L1085 226" stroke-width="6" stroke="url(#SvgjsLinearGradient1488)" stroke-linecap="round" class="Up"></path><path d="M3229 2037L3228 3566" stroke-width="10" stroke="url(#SvgjsLinearGradient1482)" stroke-linecap="round" class="Up"></path><path d="M2137 1366L2136 741" stroke-width="6" stroke="url(#SvgjsLinearGradient1483)" stroke-linecap="round" class="Down"></path><path d="M2719 462L2718 1387" stroke-width="6" stroke="url(#SvgjsLinearGradient1485)" stroke-linecap="round" class="Up"></path></g><defs><mask id="SvgjsMask1478"><rect width="3840" height="2160" fill="#ffffff"></rect></mask><linearGradient x1="0%" y1="0%" x2="0%" y2="100%" id="SvgjsLinearGradient1479"><stop stop-color="rgba(0, 0, 0, 0)" offset="0"></stop><stop stop-color="rgba(0, 0, 0, 1)" offset="1"></stop></linearGradient><linearGradient x1="0%" y1="0%" x2="0%" y2="100%" id="SvgjsLinearGradient1480"><stop stop-color="rgba(88, 101, 242, 0)" offset="0"></stop><stop stop-color="rgba(88, 101, 242, 1)" offset="1"></stop></linearGradient><linearGradient x1="0%" y1="0%" x2="0%" y2="100%" id="SvgjsLinearGradient1481"><stop stop-color="rgba(64, 78, 237, 0)" offset="0"></stop><stop stop-color="rgba(64, 78, 237, 1)" offset="1"></stop></linearGradient><linearGradient x1="0%" y1="100%" x2="0%" y2="0%" id="SvgjsLinearGradient1482"><stop stop-color="rgba(88, 101, 242, 0)" offset="0"></stop><stop stop-color="rgba(88, 101, 242, 1)" offset="1"></stop></linearGradient><linearGradient x1="0%" y1="0%" x2="0%" y2="100%" id="SvgjsLinearGradient1483"><stop stop-color="rgba(86, 99, 247, 0)" offset="0"></stop><stop stop-color="rgba(86, 99, 247, 1)" offset="1"></stop></linearGradient><linearGradient x1="0%" y1="100%" x2="0%" y2="0%" id="SvgjsLinearGradient1484"><stop stop-color="rgba(0, 0, 0, 0)" offset="0"></stop><stop stop-color="rgba(0, 0, 0, 1)" offset="1"></stop></linearGradient><linearGradient x1="0%" y1="100%" x2="0%" y2="0%" id="SvgjsLinearGradient1485"><stop stop-color="rgba(153, 170, 181, 0)" offset="0"></stop><stop stop-color="rgba(153, 170, 181, 1)" offset="1"></stop></linearGradient><linearGradient x1="0%" y1="0%" x2="0%" y2="100%" id="SvgjsLinearGradient1486"><stop stop-color="rgba(153, 170, 181, 0)" offset="0"></stop><stop stop-color="rgba(153, 170, 181, 1)" offset="1"></stop></linearGradient><linearGradient x1="0%" y1="100%" x2="0%" y2="0%" id="SvgjsLinearGradient1487"><stop stop-color="rgba(64, 78, 237, 0)" offset="0"></stop><stop stop-color="rgba(64, 78, 237, 1)" offset="1"></stop></linearGradient><linearGradient x1="0%" y1="100%" x2="0%" y2="0%" id="SvgjsLinearGradient1488"><stop stop-color="rgba(86, 99, 247, 0)" offset="0"></stop><stop stop-color="rgba(86, 99, 247, 1)" offset="1"></stop></linearGradient></defs></svg>