<svg xmlns="http://www.w3.org/2000/svg" version="1.1" xmlns:xlink="http://www.w3.org/1999/xlink" xmlns:svgjs="http://svgjs.com/svgjs" width="3840" height="2160" preserveAspectRatio="none" viewBox="0 0 3840 2160">
    <g mask="url(&quot;#SvgjsMask1240&quot;)" fill="none">
        <rect width="3840" height="2160" x="0" y="0" fill="rgba(0, 0, 0, 1)"></rect>
        <path d="M2403 1875L2402 3163" stroke-width="8" stroke="url(#SvgjsLinearGradient1241)" stroke-linecap="round" class="Up"></path>
        <path d="M1796 551L1795 1746" stroke-width="8" stroke="url(#SvgjsLinearGradient1242)" stroke-linecap="round" class="Up"></path>
        <path d="M2286 53L2285 -1056" stroke-width="10" stroke="url(#SvgjsLinearGradient1243)" stroke-linecap="round" class="Down"></path>
        <path d="M616 932L615 -601" stroke-width="8" stroke="url(#SvgjsLinearGradient1243)" stroke-linecap="round" class="Down"></path>
        <path d="M2068 153L2067 -1114" stroke-width="10" stroke="url(#SvgjsLinearGradient1244)" stroke-linecap="round" class="Down"></path>
        <path d="M339 1796L338 412" stroke-width="10" stroke="url(#SvgjsLinearGradient1243)" stroke-linecap="round" class="Down"></path>
        <path d="M881 1753L880 3186" stroke-width="8" stroke="url(#SvgjsLinearGradient1245)" stroke-linecap="round" class="Up"></path>
        <path d="M1386 1906L1385 1285" stroke-width="8" stroke="url(#SvgjsLinearGradient1246)" stroke-linecap="round" class="Down"></path>
        <path d="M3120 977L3119 258" stroke-width="10" stroke="url(#SvgjsLinearGradient1244)" stroke-linecap="round" class="Down"></path>
        <path d="M2209 924L2208 65" stroke-width="6" stroke="url(#SvgjsLinearGradient1247)" stroke-linecap="round" class="Down"></path>
        <path d="M2791 78L2790 -641" stroke-width="10" stroke="url(#SvgjsLinearGradient1243)" stroke-linecap="round" class="Down"></path>
        <path d="M1743 1472L1742 2144" stroke-width="6" stroke="url(#SvgjsLinearGradient1248)" stroke-linecap="round" class="Up"></path>
        <path d="M2700 2020L2699 3030" stroke-width="6" stroke="url(#SvgjsLinearGradient1242)" stroke-linecap="round" class="Up"></path>
        <path d="M3407 24L3406 -1533" stroke-width="10" stroke="url(#SvgjsLinearGradient1241)" stroke-linecap="round" class="Up"></path>
        <path d="M3172 118L3171 -1103" stroke-width="8" stroke="url(#SvgjsLinearGradient1247)" stroke-linecap="round" class="Down"></path>
        <path d="M1673 1529L1672 282" stroke-width="8" stroke="url(#SvgjsLinearGradient1241)" stroke-linecap="round" class="Up"></path>
        <path d="M1207 1535L1206 2184" stroke-width="8" stroke="url(#SvgjsLinearGradient1246)" stroke-linecap="round" class="Down"></path>
        <path d="M2937 1263L2936 2740" stroke-width="10" stroke="url(#SvgjsLinearGradient1249)" stroke-linecap="round" class="Down"></path>
        <path d="M2206 1537L2205 2688" stroke-width="6" stroke="url(#SvgjsLinearGradient1248)" stroke-linecap="round" class="Up"></path>
        <path d="M476 1907L475 1138" stroke-width="8" stroke="url(#SvgjsLinearGradient1244)" stroke-linecap="round" class="Down"></path>
        <path d="M884 371L883 1347" stroke-width="6" stroke="url(#SvgjsLinearGradient1250)" stroke-linecap="round" class="Down"></path>
        <path d="M830 1331L829 2216" stroke-width="8" stroke="url(#SvgjsLinearGradient1246)" stroke-linecap="round" class="Down"></path>
        <path d="M1583 1700L1582 552" stroke-width="6" stroke="url(#SvgjsLinearGradient1251)" stroke-linecap="round" class="Up"></path>
        <path d="M781 1999L780 3331" stroke-width="10" stroke="url(#SvgjsLinearGradient1252)" stroke-linecap="round" class="Down"></path>
        <path d="M481 1990L480 1313" stroke-width="8" stroke="url(#SvgjsLinearGradient1253)" stroke-linecap="round" class="Up"></path>
        <path d="M2346 1965L2345 3049" stroke-width="10" stroke="url(#SvgjsLinearGradient1249)" stroke-linecap="round" class="Down"></path>
        <path d="M3424 220L3423 1822" stroke-width="8" stroke="url(#SvgjsLinearGradient1249)" stroke-linecap="round" class="Down"></path>
        <path d="M831 1957L830 612" stroke-width="8" stroke="url(#SvgjsLinearGradient1242)" stroke-linecap="round" class="Up"></path>
        <path d="M1368 1622L1367 2643" stroke-width="6" stroke="url(#SvgjsLinearGradient1250)" stroke-linecap="round" class="Down"></path>
        <path d="M1569 2121L1568 637" stroke-width="10" stroke="url(#SvgjsLinearGradient1254)" stroke-linecap="round" class="Up"></path>
        <path d="M2308 672L2307 -37" stroke-width="8" stroke="url(#SvgjsLinearGradient1248)" stroke-linecap="round" class="Up"></path>
        <path d="M828 865L827 2045" stroke-width="6" stroke="url(#SvgjsLinearGradient1252)" stroke-linecap="round" class="Down"></path>
        <path d="M2156 326L2155 -807" stroke-width="10" stroke="url(#SvgjsLinearGradient1242)" stroke-linecap="round" class="Up"></path>
        <path d="M1479 392L1478 -898" stroke-width="8" stroke="url(#SvgjsLinearGradient1254)" stroke-linecap="round" class="Up"></path>
        <path d="M3205 607L3204 -724" stroke-width="10" stroke="url(#SvgjsLinearGradient1251)" stroke-linecap="round" class="Up"></path>
        <path d="M2470 986L2469 -501" stroke-width="8" stroke="url(#SvgjsLinearGradient1242)" stroke-linecap="round" class="Up"></path>
        <path d="M2981 182L2980 1626" stroke-width="8" stroke="url(#SvgjsLinearGradient1249)" stroke-linecap="round" class="Down"></path>
        <path d="M2177 1128L2176 61" stroke-width="8" stroke="url(#SvgjsLinearGradient1250)" stroke-linecap="round" class="Down"></path>
        <path d="M610 143L609 -802" stroke-width="10" stroke="url(#SvgjsLinearGradient1242)" stroke-linecap="round" class="Up"></path>
        <path d="M3018 757L3017 2331" stroke-width="8" stroke="url(#SvgjsLinearGradient1253)" stroke-linecap="round" class="Up"></path>
        <path d="M541 1684L540 1118" stroke-width="10" stroke="url(#SvgjsLinearGradient1244)" stroke-linecap="round" class="Down"></path>
        <path d="M1351 1199L1350 2596" stroke-width="6" stroke="url(#SvgjsLinearGradient1245)" stroke-linecap="round" class="Up"></path>
        <path d="M3810 1580L3809 3120" stroke-width="8" stroke="url(#SvgjsLinearGradient1244)" stroke-linecap="round" class="Down"></path>
        <path d="M55 1209L54 -185" stroke-width="6" stroke="url(#SvgjsLinearGradient1254)" stroke-linecap="round" class="Up"></path>
        <path d="M2250 113L2249 -1178" stroke-width="10" stroke="url(#SvgjsLinearGradient1241)" stroke-linecap="round" class="Up"></path>
        <path d="M2015 1175L2014 2338" stroke-width="10" stroke="url(#SvgjsLinearGradient1252)" stroke-linecap="round" class="Down"></path>
        <path d="M2517 1759L2516 3033" stroke-width="6" stroke="url(#SvgjsLinearGradient1249)" stroke-linecap="round" class="Down"></path>
        <path d="M1890 1238L1889 2535" stroke-width="10" stroke="url(#SvgjsLinearGradient1254)" stroke-linecap="round" class="Up"></path>
        <path d="M1694 1036L1693 269" stroke-width="10" stroke="url(#SvgjsLinearGradient1250)" stroke-linecap="round" class="Down"></path>
        <path d="M1743 216L1742 1133" stroke-width="8" stroke="url(#SvgjsLinearGradient1245)" stroke-linecap="round" class="Up"></path>
        <path d="M2446 197L2445 1734" stroke-width="6" stroke="url(#SvgjsLinearGradient1254)" stroke-linecap="round" class="Up"></path>
        <path d="M3319 352L3318 -1230" stroke-width="6" stroke="url(#SvgjsLinearGradient1241)" stroke-linecap="round" class="Up"></path>
        <path d="M2526 570L2525 -170" stroke-width="6" stroke="url(#SvgjsLinearGradient1254)" stroke-linecap="round" class="Up"></path>
        <path d="M2269 979L2268 367" stroke-width="10" stroke="url(#SvgjsLinearGradient1249)" stroke-linecap="round" class="Down"></path>
        <path d="M2716 1055L2715 1835" stroke-width="8" stroke="url(#SvgjsLinearGradient1249)" stroke-linecap="round" class="Down"></path>
        <path d="M55 51L54 618" stroke-width="10" stroke="url(#SvgjsLinearGradient1246)" stroke-linecap="round" class="Down"></path>
        <path d="M1232 1565L1231 2937" stroke-width="10" stroke="url(#SvgjsLinearGradient1251)" stroke-linecap="round" class="Up"></path>
        <path d="M3314 111L3313 -908" stroke-width="10" stroke="url(#SvgjsLinearGradient1241)" stroke-linecap="round" class="Up"></path>
        <path d="M2083 1134L2082 -332" stroke-width="8" stroke="url(#SvgjsLinearGradient1244)" stroke-linecap="round" class="Down"></path>
        <path d="M808 1513L807 2287" stroke-width="6" stroke="url(#SvgjsLinearGradient1250)" stroke-linecap="round" class="Down"></path>
        <path d="M3158 1215L3157 2095" stroke-width="8" stroke="url(#SvgjsLinearGradient1242)" stroke-linecap="round" class="Up"></path>
        <path d="M1925 1727L1924 3193" stroke-width="10" stroke="url(#SvgjsLinearGradient1250)" stroke-linecap="round" class="Down"></path>
        <path d="M2249 1585L2248 652" stroke-width="10" stroke="url(#SvgjsLinearGradient1253)" stroke-linecap="round" class="Up"></path>
        <path d="M3448 1607L3447 2237" stroke-width="6" stroke="url(#SvgjsLinearGradient1251)" stroke-linecap="round" class="Up"></path>
        <path d="M1566 1769L1565 266" stroke-width="10" stroke="url(#SvgjsLinearGradient1245)" stroke-linecap="round" class="Up"></path>
        <path d="M624 1505L623 904" stroke-width="10" stroke="url(#SvgjsLinearGradient1248)" stroke-linecap="round" class="Up"></path>
        <path d="M910 2009L909 437" stroke-width="6" stroke="url(#SvgjsLinearGradient1244)" stroke-linecap="round" class="Down"></path>
        <path d="M2595 162L2594 -695" stroke-width="6" stroke="url(#SvgjsLinearGradient1252)" stroke-linecap="round" class="Down"></path>
        <path d="M557 733L556 2176" stroke-width="10" stroke="url(#SvgjsLinearGradient1251)" stroke-linecap="round" class="Up"></path>
        <path d="M1426 1080L1425 1660" stroke-width="8" stroke="url(#SvgjsLinearGradient1245)" stroke-linecap="round" class="Up"></path>
        <path d="M1654 1745L1653 421" stroke-width="10" stroke="url(#SvgjsLinearGradient1251)" stroke-linecap="round" class="Up"></path>
        <path d="M545 152L544 1598" stroke-width="10" stroke="url(#SvgjsLinearGradient1250)" stroke-linecap="round" class="Down"></path>
        <path d="M960 1295L959 -38" stroke-width="10" stroke="url(#SvgjsLinearGradient1250)" stroke-linecap="round" class="Down"></path>
        <path d="M2173 1722L2172 3166" stroke-width="6" stroke="url(#SvgjsLinearGradient1253)" stroke-linecap="round" class="Up"></path>
        <path d="M581 146L580 -1035" stroke-width="8" stroke="url(#SvgjsLinearGradient1245)" stroke-linecap="round" class="Up"></path>
        <path d="M1804 536L1803 -210" stroke-width="10" stroke="url(#SvgjsLinearGradient1241)" stroke-linecap="round" class="Up"></path>
        <path d="M2936 1886L2935 3073" stroke-width="8" stroke="url(#SvgjsLinearGradient1241)" stroke-linecap="round" class="Up"></path>
        <path d="M170 8L169 -897" stroke-width="8" stroke="url(#SvgjsLinearGradient1248)" stroke-linecap="round" class="Up"></path>
        <path d="M2420 1534L2419 231" stroke-width="8" stroke="url(#SvgjsLinearGradient1248)" stroke-linecap="round" class="Up"></path>
        <path d="M3225 2099L3224 1556" stroke-width="10" stroke="url(#SvgjsLinearGradient1243)" stroke-linecap="round" class="Down"></path>
        <path d="M217 1252L216 58" stroke-width="8" stroke="url(#SvgjsLinearGradient1245)" stroke-linecap="round" class="Up"></path>
        <path d="M2474 927L2473 -239" stroke-width="6" stroke="url(#SvgjsLinearGradient1253)" stroke-linecap="round" class="Up"></path>
        <path d="M167 742L166 -241" stroke-width="6" stroke="url(#SvgjsLinearGradient1251)" stroke-linecap="round" class="Up"></path>
        <path d="M751 622L750 -514" stroke-width="10" stroke="url(#SvgjsLinearGradient1252)" stroke-linecap="round" class="Down"></path>
        <path d="M1101 288L1100 1346" stroke-width="10" stroke="url(#SvgjsLinearGradient1246)" stroke-linecap="round" class="Down"></path>
        <path d="M3754 53L3753 -547" stroke-width="8" stroke="url(#SvgjsLinearGradient1243)" stroke-linecap="round" class="Down"></path>
        <path d="M167 492L166 1260" stroke-width="8" stroke="url(#SvgjsLinearGradient1252)" stroke-linecap="round" class="Down"></path>
        <path d="M2408 1523L2407 2987" stroke-width="6" stroke="url(#SvgjsLinearGradient1253)" stroke-linecap="round" class="Up"></path>
        <path d="M335 1162L334 2399" stroke-width="8" stroke="url(#SvgjsLinearGradient1250)" stroke-linecap="round" class="Down"></path>
        <path d="M185 1779L184 1021" stroke-width="6" stroke="url(#SvgjsLinearGradient1250)" stroke-linecap="round" class="Down"></path>
        <path d="M1197 1288L1196 -117" stroke-width="8" stroke="url(#SvgjsLinearGradient1242)" stroke-linecap="round" class="Up"></path>
        <path d="M238 7L237 -1072" stroke-width="6" stroke="url(#SvgjsLinearGradient1253)" stroke-linecap="round" class="Up"></path>
        <path d="M614 485L613 -881" stroke-width="6" stroke="url(#SvgjsLinearGradient1254)" stroke-linecap="round" class="Up"></path>
        <path d="M1481 732L1480 1727" stroke-width="10" stroke="url(#SvgjsLinearGradient1243)" stroke-linecap="round" class="Down"></path>
        <path d="M2873 597L2872 -552" stroke-width="10" stroke="url(#SvgjsLinearGradient1245)" stroke-linecap="round" class="Up"></path>
        <path d="M574 1574L573 825" stroke-width="8" stroke="url(#SvgjsLinearGradient1254)" stroke-linecap="round" class="Up"></path>
    </g>
    <defs>
        <mask id="SvgjsMask1240">
            <rect width="3840" height="2160" fill="#ffffff"></rect>
        </mask>
        <linearGradient x1="0%" y1="100%" x2="0%" y2="0%" id="SvgjsLinearGradient1241">
            <stop stop-color="rgba(255, 106, 0, 0)" offset="0"></stop>
            <stop stop-color="rgba(255, 106, 0, 1)" offset="1"></stop>
        </linearGradient>
        <linearGradient x1="0%" y1="100%" x2="0%" y2="0%" id="SvgjsLinearGradient1242">
            <stop stop-color="rgba(252, 255, 0, 0)" offset="0"></stop>
            <stop stop-color="rgba(252, 255, 0, 1)" offset="1"></stop>
        </linearGradient>
        <linearGradient x1="0%" y1="0%" x2="0%" y2="100%" id="SvgjsLinearGradient1243">
            <stop stop-color="rgba(161, 167, 13, 0)" offset="0"></stop>
            <stop stop-color="rgba(161, 167, 13, 1)" offset="1"></stop>
        </linearGradient>
        <linearGradient x1="0%" y1="0%" x2="0%" y2="100%" id="SvgjsLinearGradient1244">
            <stop stop-color="rgba(175, 174, 5, 0)" offset="0"></stop>
            <stop stop-color="rgba(175, 174, 5, 1)" offset="1"></stop>
        </linearGradient>
        <linearGradient x1="0%" y1="100%" x2="0%" y2="0%" id="SvgjsLinearGradient1245">
            <stop stop-color="rgba(175, 174, 5, 0)" offset="0"></stop>
            <stop stop-color="rgba(175, 174, 5, 1)" offset="1"></stop>
        </linearGradient>
        <linearGradient x1="0%" y1="0%" x2="0%" y2="100%" id="SvgjsLinearGradient1246">
            <stop stop-color="rgba(255, 106, 0, 0)" offset="0"></stop>
            <stop stop-color="rgba(255, 106, 0, 1)" offset="1"></stop>
        </linearGradient>
        <linearGradient x1="0%" y1="0%" x2="0%" y2="100%" id="SvgjsLinearGradient1247">
            <stop stop-color="rgba(252, 255, 0, 0)" offset="0"></stop>
            <stop stop-color="rgba(252, 255, 0, 1)" offset="1"></stop>
        </linearGradient>
        <linearGradient x1="0%" y1="100%" x2="0%" y2="0%" id="SvgjsLinearGradient1248">
            <stop stop-color="rgba(129, 128, 1, 0)" offset="0"></stop>
            <stop stop-color="rgba(129, 128, 1, 1)" offset="1"></stop>
        </linearGradient>
        <linearGradient x1="0%" y1="0%" x2="0%" y2="100%" id="SvgjsLinearGradient1249">
            <stop stop-color="rgba(193, 165, 5, 0)" offset="0"></stop>
            <stop stop-color="rgba(193, 165, 5, 1)" offset="1"></stop>
        </linearGradient>
        <linearGradient x1="0%" y1="0%" x2="0%" y2="100%" id="SvgjsLinearGradient1250">
            <stop stop-color="rgba(129, 128, 1, 0)" offset="0"></stop>
            <stop stop-color="rgba(129, 128, 1, 1)" offset="1"></stop>
        </linearGradient>
        <linearGradient x1="0%" y1="100%" x2="0%" y2="0%" id="SvgjsLinearGradient1251">
            <stop stop-color="rgba(161, 167, 13, 0)" offset="0"></stop>
            <stop stop-color="rgba(161, 167, 13, 1)" offset="1"></stop>
        </linearGradient>
        <linearGradient x1="0%" y1="0%" x2="0%" y2="100%" id="SvgjsLinearGradient1252">
            <stop stop-color="rgba(211, 79, 12, 0)" offset="0"></stop>
            <stop stop-color="rgba(211, 79, 12, 1)" offset="1"></stop>
        </linearGradient>
        <linearGradient x1="0%" y1="100%" x2="0%" y2="0%" id="SvgjsLinearGradient1253">
            <stop stop-color="rgba(211, 79, 12, 0)" offset="0"></stop>
            <stop stop-color="rgba(211, 79, 12, 1)" offset="1"></stop>
        </linearGradient>
        <linearGradient x1="0%" y1="100%" x2="0%" y2="0%" id="SvgjsLinearGradient1254">
            <stop stop-color="rgba(193, 165, 5, 0)" offset="0"></stop>
            <stop stop-color="rgba(193, 165, 5, 1)" offset="1"></stop>
        </linearGradient>
    </defs>
</svg>