<svg xmlns="http://www.w3.org/2000/svg" version="1.1" xmlns:xlink="http://www.w3.org/1999/xlink" xmlns:svgjs="http://svgjs.com/svgjs" width="3840" height="2160" preserveAspectRatio="none" viewBox="0 0 3840 2160"><g mask="url(&quot;#SvgjsMask1554&quot;)" fill="none"><rect width="3840" height="2160" x="0" y="0" fill="rgba(0, 0, 0, 1)"></rect><path d="M3444 771L3443 2117" stroke-width="6" stroke="url(#SvgjsLinearGradient1555)" stroke-linecap="round" class="Up"></path><path d="M3376 1312L3375 377" stroke-width="8" stroke="url(#SvgjsLinearGradient1555)" stroke-linecap="round" class="Up"></path><path d="M3106 2090L3105 1464" stroke-width="6" stroke="url(#SvgjsLinearGradient1556)" stroke-linecap="round" class="Down"></path><path d="M237 1436L236 551" stroke-width="8" stroke="url(#SvgjsLinearGradient1556)" stroke-linecap="round" class="Down"></path><path d="M437 858L436 2148" stroke-width="10" stroke="url(#SvgjsLinearGradient1557)" stroke-linecap="round" class="Up"></path><path d="M3749 1046L3748 -139" stroke-width="8" stroke="url(#SvgjsLinearGradient1558)" stroke-linecap="round" class="Up"></path><path d="M1901 1870L1900 1232" stroke-width="8" stroke="url(#SvgjsLinearGradient1559)" stroke-linecap="round" class="Down"></path><path d="M1660 2106L1659 2779" stroke-width="6" stroke="url(#SvgjsLinearGradient1560)" stroke-linecap="round" class="Up"></path><path d="M1706 1400L1705 2866" stroke-width="8" stroke="url(#SvgjsLinearGradient1561)" stroke-linecap="round" class="Down"></path><path d="M3828 1761L3827 2732" stroke-width="8" stroke="url(#SvgjsLinearGradient1559)" stroke-linecap="round" class="Down"></path><path d="M1885 1758L1884 906" stroke-width="8" stroke="url(#SvgjsLinearGradient1558)" stroke-linecap="round" class="Up"></path><path d="M2978 452L2977 1996" stroke-width="10" stroke="url(#SvgjsLinearGradient1560)" stroke-linecap="round" class="Up"></path><path d="M2677 681L2676 2010" stroke-width="8" stroke="url(#SvgjsLinearGradient1562)" stroke-linecap="round" class="Up"></path><path d="M2270 1295L2269 2294" stroke-width="10" stroke="url(#SvgjsLinearGradient1557)" stroke-linecap="round" class="Up"></path><path d="M731 51L730 -614" stroke-width="8" stroke="url(#SvgjsLinearGradient1556)" stroke-linecap="round" class="Down"></path><path d="M2030 625L2029 1320" stroke-width="8" stroke="url(#SvgjsLinearGradient1560)" stroke-linecap="round" class="Up"></path><path d="M2783 87L2782 -1149" stroke-width="8" stroke="url(#SvgjsLinearGradient1563)" stroke-linecap="round" class="Down"></path><path d="M403 127L402 692" stroke-width="10" stroke="url(#SvgjsLinearGradient1561)" stroke-linecap="round" class="Down"></path><path d="M946 1566L945 2854" stroke-width="6" stroke="url(#SvgjsLinearGradient1560)" stroke-linecap="round" class="Up"></path><path d="M1210 285L1209 1080" stroke-width="6" stroke="url(#SvgjsLinearGradient1564)" stroke-linecap="round" class="Down"></path><path d="M3143 697L3142 1450" stroke-width="8" stroke="url(#SvgjsLinearGradient1555)" stroke-linecap="round" class="Up"></path><path d="M2433 400L2432 1748" stroke-width="6" stroke="url(#SvgjsLinearGradient1561)" stroke-linecap="round" class="Down"></path><path d="M766 1792L765 1166" stroke-width="6" stroke="url(#SvgjsLinearGradient1565)" stroke-linecap="round" class="Up"></path><path d="M3622 1821L3621 718" stroke-width="10" stroke="url(#SvgjsLinearGradient1562)" stroke-linecap="round" class="Up"></path><path d="M3426 1564L3425 342" stroke-width="10" stroke="url(#SvgjsLinearGradient1555)" stroke-linecap="round" class="Up"></path><path d="M1567 276L1566 -575" stroke-width="6" stroke="url(#SvgjsLinearGradient1560)" stroke-linecap="round" class="Up"></path><path d="M525 1733L524 2811" stroke-width="6" stroke="url(#SvgjsLinearGradient1557)" stroke-linecap="round" class="Up"></path><path d="M3334 1492L3333 2208" stroke-width="6" stroke="url(#SvgjsLinearGradient1566)" stroke-linecap="round" class="Down"></path><path d="M1258 811L1257 1981" stroke-width="6" stroke="url(#SvgjsLinearGradient1566)" stroke-linecap="round" class="Down"></path><path d="M1749 1627L1748 103" stroke-width="10" stroke="url(#SvgjsLinearGradient1562)" stroke-linecap="round" class="Up"></path><path d="M2871 344L2870 -1240" stroke-width="8" stroke="url(#SvgjsLinearGradient1561)" stroke-linecap="round" class="Down"></path><path d="M1731 1626L1730 922" stroke-width="10" stroke="url(#SvgjsLinearGradient1560)" stroke-linecap="round" class="Up"></path><path d="M479 1021L478 -293" stroke-width="6" stroke="url(#SvgjsLinearGradient1563)" stroke-linecap="round" class="Down"></path><path d="M335 2011L334 3389" stroke-width="8" stroke="url(#SvgjsLinearGradient1557)" stroke-linecap="round" class="Up"></path><path d="M1796 1813L1795 905" stroke-width="8" stroke="url(#SvgjsLinearGradient1559)" stroke-linecap="round" class="Down"></path><path d="M1247 633L1246 -635" stroke-width="8" stroke="url(#SvgjsLinearGradient1555)" stroke-linecap="round" class="Up"></path><path d="M3713 850L3712 -695" stroke-width="10" stroke="url(#SvgjsLinearGradient1561)" stroke-linecap="round" class="Down"></path><path d="M1709 647L1708 -316" stroke-width="8" stroke="url(#SvgjsLinearGradient1558)" stroke-linecap="round" class="Up"></path><path d="M2894 437L2893 -953" stroke-width="10" stroke="url(#SvgjsLinearGradient1561)" stroke-linecap="round" class="Down"></path><path d="M1742 758L1741 2063" stroke-width="8" stroke="url(#SvgjsLinearGradient1566)" stroke-linecap="round" class="Down"></path><path d="M819 2084L818 1410" stroke-width="8" stroke="url(#SvgjsLinearGradient1555)" stroke-linecap="round" class="Up"></path><path d="M3539 258L3538 1263" stroke-width="6" stroke="url(#SvgjsLinearGradient1558)" stroke-linecap="round" class="Up"></path><path d="M1277 1758L1276 667" stroke-width="6" stroke="url(#SvgjsLinearGradient1565)" stroke-linecap="round" class="Up"></path><path d="M2260 1823L2259 579" stroke-width="6" stroke="url(#SvgjsLinearGradient1566)" stroke-linecap="round" class="Down"></path><path d="M586 1019L585 1610" stroke-width="10" stroke="url(#SvgjsLinearGradient1564)" stroke-linecap="round" class="Down"></path><path d="M2119 1484L2118 2759" stroke-width="8" stroke="url(#SvgjsLinearGradient1565)" stroke-linecap="round" class="Up"></path><path d="M117 1676L116 450" stroke-width="10" stroke="url(#SvgjsLinearGradient1561)" stroke-linecap="round" class="Down"></path><path d="M3353 847L3352 1952" stroke-width="8" stroke="url(#SvgjsLinearGradient1556)" stroke-linecap="round" class="Down"></path><path d="M2377 1680L2376 3031" stroke-width="6" stroke="url(#SvgjsLinearGradient1566)" stroke-linecap="round" class="Down"></path><path d="M1914 1825L1913 2992" stroke-width="8" stroke="url(#SvgjsLinearGradient1558)" stroke-linecap="round" class="Up"></path><path d="M1258 99L1257 -1119" stroke-width="6" stroke="url(#SvgjsLinearGradient1562)" stroke-linecap="round" class="Up"></path><path d="M1071 1927L1070 2811" stroke-width="6" stroke="url(#SvgjsLinearGradient1565)" stroke-linecap="round" class="Up"></path><path d="M2331 2020L2330 913" stroke-width="8" stroke="url(#SvgjsLinearGradient1558)" stroke-linecap="round" class="Up"></path><path d="M3419 1253L3418 2700" stroke-width="10" stroke="url(#SvgjsLinearGradient1564)" stroke-linecap="round" class="Down"></path><path d="M1449 1363L1448 -207" stroke-width="6" stroke="url(#SvgjsLinearGradient1566)" stroke-linecap="round" class="Down"></path><path d="M1942 1287L1941 2353" stroke-width="10" stroke="url(#SvgjsLinearGradient1561)" stroke-linecap="round" class="Down"></path><path d="M1940 492L1939 2053" stroke-width="6" stroke="url(#SvgjsLinearGradient1561)" stroke-linecap="round" class="Down"></path><path d="M1266 2126L1265 3457" stroke-width="6" stroke="url(#SvgjsLinearGradient1564)" stroke-linecap="round" class="Down"></path><path d="M2531 764L2530 1767" stroke-width="8" stroke="url(#SvgjsLinearGradient1563)" stroke-linecap="round" class="Down"></path><path d="M526 1103L525 233" stroke-width="8" stroke="url(#SvgjsLinearGradient1565)" stroke-linecap="round" class="Up"></path><path d="M853 804L852 -172" stroke-width="10" stroke="url(#SvgjsLinearGradient1564)" stroke-linecap="round" class="Down"></path><path d="M2708 1430L2707 432" stroke-width="8" stroke="url(#SvgjsLinearGradient1565)" stroke-linecap="round" class="Up"></path><path d="M2425 1838L2424 670" stroke-width="6" stroke="url(#SvgjsLinearGradient1564)" stroke-linecap="round" class="Down"></path><path d="M1786 1551L1785 977" stroke-width="6" stroke="url(#SvgjsLinearGradient1562)" stroke-linecap="round" class="Up"></path><path d="M2396 1597L2395 2929" stroke-width="8" stroke="url(#SvgjsLinearGradient1559)" stroke-linecap="round" class="Down"></path><path d="M1998 190L1997 -494" stroke-width="8" stroke="url(#SvgjsLinearGradient1564)" stroke-linecap="round" class="Down"></path><path d="M3047 228L3046 1063" stroke-width="10" stroke="url(#SvgjsLinearGradient1561)" stroke-linecap="round" class="Down"></path><path d="M378 2122L377 727" stroke-width="10" stroke="url(#SvgjsLinearGradient1562)" stroke-linecap="round" class="Up"></path><path d="M2181 439L2180 -802" stroke-width="8" stroke="url(#SvgjsLinearGradient1561)" stroke-linecap="round" class="Down"></path><path d="M2192 1217L2191 -302" stroke-width="8" stroke="url(#SvgjsLinearGradient1562)" stroke-linecap="round" class="Up"></path><path d="M2733 690L2732 1520" stroke-width="10" stroke="url(#SvgjsLinearGradient1563)" stroke-linecap="round" class="Down"></path><path d="M2972 1215L2971 3" stroke-width="8" stroke="url(#SvgjsLinearGradient1561)" stroke-linecap="round" class="Down"></path><path d="M3614 1236L3613 1901" stroke-width="6" stroke="url(#SvgjsLinearGradient1566)" stroke-linecap="round" class="Down"></path><path d="M947 1514L946 470" stroke-width="10" stroke="url(#SvgjsLinearGradient1566)" stroke-linecap="round" class="Down"></path><path d="M1340 1885L1339 2547" stroke-width="10" stroke="url(#SvgjsLinearGradient1562)" stroke-linecap="round" class="Up"></path><path d="M104 228L103 1358" stroke-width="8" stroke="url(#SvgjsLinearGradient1559)" stroke-linecap="round" class="Down"></path><path d="M1188 305L1187 -1054" stroke-width="10" stroke="url(#SvgjsLinearGradient1557)" stroke-linecap="round" class="Up"></path><path d="M3683 512L3682 1589" stroke-width="8" stroke="url(#SvgjsLinearGradient1555)" stroke-linecap="round" class="Up"></path><path d="M1318 949L1317 2507" stroke-width="6" stroke="url(#SvgjsLinearGradient1565)" stroke-linecap="round" class="Up"></path><path d="M901 449L900 1725" stroke-width="8" stroke="url(#SvgjsLinearGradient1559)" stroke-linecap="round" class="Down"></path><path d="M130 1840L129 2417" stroke-width="8" stroke="url(#SvgjsLinearGradient1564)" stroke-linecap="round" class="Down"></path><path d="M3140 405L3139 1102" stroke-width="6" stroke="url(#SvgjsLinearGradient1556)" stroke-linecap="round" class="Down"></path><path d="M1049 580L1048 1703" stroke-width="6" stroke="url(#SvgjsLinearGradient1564)" stroke-linecap="round" class="Down"></path><path d="M3797 2146L3796 3715" stroke-width="6" stroke="url(#SvgjsLinearGradient1559)" stroke-linecap="round" class="Down"></path><path d="M1068 1580L1067 2271" stroke-width="10" stroke="url(#SvgjsLinearGradient1555)" stroke-linecap="round" class="Up"></path><path d="M1894 1680L1893 571" stroke-width="6" stroke="url(#SvgjsLinearGradient1562)" stroke-linecap="round" class="Up"></path><path d="M2574 831L2573 -762" stroke-width="6" stroke="url(#SvgjsLinearGradient1559)" stroke-linecap="round" class="Down"></path><path d="M3755 1661L3754 863" stroke-width="10" stroke="url(#SvgjsLinearGradient1564)" stroke-linecap="round" class="Down"></path><path d="M1812 1806L1811 3163" stroke-width="6" stroke="url(#SvgjsLinearGradient1566)" stroke-linecap="round" class="Down"></path><path d="M2791 694L2790 -804" stroke-width="8" stroke="url(#SvgjsLinearGradient1562)" stroke-linecap="round" class="Up"></path><path d="M3581 1843L3580 1036" stroke-width="6" stroke="url(#SvgjsLinearGradient1566)" stroke-linecap="round" class="Down"></path><path d="M1976 1846L1975 2714" stroke-width="10" stroke="url(#SvgjsLinearGradient1561)" stroke-linecap="round" class="Down"></path><path d="M2674 1533L2673 -82" stroke-width="10" stroke="url(#SvgjsLinearGradient1555)" stroke-linecap="round" class="Up"></path><path d="M1336 937L1335 -283" stroke-width="8" stroke="url(#SvgjsLinearGradient1560)" stroke-linecap="round" class="Up"></path><path d="M3242 430L3241 1804" stroke-width="6" stroke="url(#SvgjsLinearGradient1561)" stroke-linecap="round" class="Down"></path><path d="M3016 924L3015 -286" stroke-width="10" stroke="url(#SvgjsLinearGradient1563)" stroke-linecap="round" class="Down"></path></g><defs><mask id="SvgjsMask1554"><rect width="3840" height="2160" fill="#ffffff"></rect></mask><linearGradient x1="0%" y1="100%" x2="0%" y2="0%" id="SvgjsLinearGradient1555"><stop stop-color="rgba(103, 41, 143, 0)" offset="0"></stop><stop stop-color="rgba(103, 41, 143, 1)" offset="1"></stop></linearGradient><linearGradient x1="0%" y1="0%" x2="0%" y2="100%" id="SvgjsLinearGradient1556"><stop stop-color="rgba(237, 64, 87, 0)" offset="0"></stop><stop stop-color="rgba(237, 64, 87, 1)" offset="1"></stop></linearGradient><linearGradient x1="0%" y1="100%" x2="0%" y2="0%" id="SvgjsLinearGradient1557"><stop stop-color="rgba(237, 64, 87, 0)" offset="0"></stop><stop stop-color="rgba(237, 64, 87, 1)" offset="1"></stop></linearGradient><linearGradient x1="0%" y1="100%" x2="0%" y2="0%" id="SvgjsLinearGradient1558"><stop stop-color="rgba(242, 88, 231, 0)" offset="0"></stop><stop stop-color="rgba(242, 88, 231, 1)" offset="1"></stop></linearGradient><linearGradient x1="0%" y1="0%" x2="0%" y2="100%" id="SvgjsLinearGradient1559"><stop stop-color="rgba(242, 88, 144, 0)" offset="0"></stop><stop stop-color="rgba(242, 88, 144, 1)" offset="1"></stop></linearGradient><linearGradient x1="0%" y1="100%" x2="0%" y2="0%" id="SvgjsLinearGradient1560"><stop stop-color="rgba(242, 88, 144, 0)" offset="0"></stop><stop stop-color="rgba(242, 88, 144, 1)" offset="1"></stop></linearGradient><linearGradient x1="0%" y1="0%" x2="0%" y2="100%" id="SvgjsLinearGradient1561"><stop stop-color="rgba(103, 41, 143, 0)" offset="0"></stop><stop stop-color="rgba(103, 41, 143, 1)" offset="1"></stop></linearGradient><linearGradient x1="0%" y1="100%" x2="0%" y2="0%" id="SvgjsLinearGradient1562"><stop stop-color="rgba(247, 86, 175, 0)" offset="0"></stop><stop stop-color="rgba(247, 86, 175, 1)" offset="1"></stop></linearGradient><linearGradient x1="0%" y1="0%" x2="0%" y2="100%" id="SvgjsLinearGradient1563"><stop stop-color="rgba(255, 0, 0, 0)" offset="0"></stop><stop stop-color="rgba(255, 0, 0, 1)" offset="1"></stop></linearGradient><linearGradient x1="0%" y1="0%" x2="0%" y2="100%" id="SvgjsLinearGradient1564"><stop stop-color="rgba(247, 86, 175, 0)" offset="0"></stop><stop stop-color="rgba(247, 86, 175, 1)" offset="1"></stop></linearGradient><linearGradient x1="0%" y1="100%" x2="0%" y2="0%" id="SvgjsLinearGradient1565"><stop stop-color="rgba(255, 0, 0, 0)" offset="0"></stop><stop stop-color="rgba(255, 0, 0, 1)" offset="1"></stop></linearGradient><linearGradient x1="0%" y1="0%" x2="0%" y2="100%" id="SvgjsLinearGradient1566"><stop stop-color="rgba(242, 88, 231, 0)" offset="0"></stop><stop stop-color="rgba(242, 88, 231, 1)" offset="1"></stop></linearGradient></defs></svg>