<svg xmlns="http://www.w3.org/2000/svg" version="1.1" xmlns:xlink="http://www.w3.org/1999/xlink" xmlns:svgjs="http://svgjs.com/svgjs" width="3840" height="2160" preserveAspectRatio="none" viewBox="0 0 3840 2160"><g mask="url(&quot;#SvgjsMask1632&quot;)" fill="none"><rect width="3840" height="2160" x="0" y="0" fill="rgba(0, 0, 0, 1)"></rect><path d="M406 1007L405 2217" stroke-width="6" stroke="url(#SvgjsLinearGradient1633)" stroke-linecap="round" class="Up"></path><path d="M3521 1179L3520 -355" stroke-width="8" stroke="url(#SvgjsLinearGradient1634)" stroke-linecap="round" class="Up"></path><path d="M845 2103L844 2830" stroke-width="8" stroke="url(#SvgjsLinearGradient1635)" stroke-linecap="round" class="Up"></path><path d="M1794 1715L1793 576" stroke-width="10" stroke="url(#SvgjsLinearGradient1636)" stroke-linecap="round" class="Down"></path><path d="M239 637L238 1395" stroke-width="8" stroke="url(#SvgjsLinearGradient1637)" stroke-linecap="round" class="Down"></path><path d="M1490 1383L1489 547" stroke-width="6" stroke="url(#SvgjsLinearGradient1638)" stroke-linecap="round" class="Up"></path><path d="M3311 1256L3310 2739" stroke-width="8" stroke="url(#SvgjsLinearGradient1639)" stroke-linecap="round" class="Up"></path><path d="M3185 410L3184 1449" stroke-width="8" stroke="url(#SvgjsLinearGradient1638)" stroke-linecap="round" class="Up"></path><path d="M2967 622L2966 -616" stroke-width="8" stroke="url(#SvgjsLinearGradient1640)" stroke-linecap="round" class="Down"></path><path d="M2520 1889L2519 2560" stroke-width="6" stroke="url(#SvgjsLinearGradient1634)" stroke-linecap="round" class="Up"></path><path d="M3602 1098L3601 2071" stroke-width="10" stroke="url(#SvgjsLinearGradient1633)" stroke-linecap="round" class="Up"></path><path d="M3289 1711L3288 2808" stroke-width="10" stroke="url(#SvgjsLinearGradient1637)" stroke-linecap="round" class="Down"></path><path d="M682 1494L681 2355" stroke-width="8" stroke="url(#SvgjsLinearGradient1640)" stroke-linecap="round" class="Down"></path><path d="M2642 1919L2641 2694" stroke-width="8" stroke="url(#SvgjsLinearGradient1641)" stroke-linecap="round" class="Down"></path><path d="M3383 1879L3382 878" stroke-width="8" stroke="url(#SvgjsLinearGradient1642)" stroke-linecap="round" class="Down"></path><path d="M1178 669L1177 2127" stroke-width="10" stroke="url(#SvgjsLinearGradient1643)" stroke-linecap="round" class="Up"></path><path d="M10 1430L9 -94" stroke-width="8" stroke="url(#SvgjsLinearGradient1642)" stroke-linecap="round" class="Down"></path><path d="M574 1788L573 1181" stroke-width="10" stroke="url(#SvgjsLinearGradient1633)" stroke-linecap="round" class="Up"></path><path d="M211 54L210 743" stroke-width="8" stroke="url(#SvgjsLinearGradient1637)" stroke-linecap="round" class="Down"></path><path d="M3382 2089L3381 3222" stroke-width="8" stroke="url(#SvgjsLinearGradient1638)" stroke-linecap="round" class="Up"></path><path d="M860 174L859 -663" stroke-width="10" stroke="url(#SvgjsLinearGradient1634)" stroke-linecap="round" class="Up"></path><path d="M2398 1173L2397 2773" stroke-width="8" stroke="url(#SvgjsLinearGradient1635)" stroke-linecap="round" class="Up"></path><path d="M372 1402L371 2807" stroke-width="8" stroke="url(#SvgjsLinearGradient1638)" stroke-linecap="round" class="Up"></path><path d="M984 1805L983 375" stroke-width="6" stroke="url(#SvgjsLinearGradient1643)" stroke-linecap="round" class="Up"></path><path d="M2969 1723L2968 312" stroke-width="10" stroke="url(#SvgjsLinearGradient1641)" stroke-linecap="round" class="Down"></path><path d="M2062 11L2061 1489" stroke-width="6" stroke="url(#SvgjsLinearGradient1634)" stroke-linecap="round" class="Up"></path><path d="M2802 1544L2801 200" stroke-width="10" stroke="url(#SvgjsLinearGradient1638)" stroke-linecap="round" class="Up"></path><path d="M445 707L444 -427" stroke-width="6" stroke="url(#SvgjsLinearGradient1638)" stroke-linecap="round" class="Up"></path><path d="M3756 1792L3755 955" stroke-width="8" stroke="url(#SvgjsLinearGradient1636)" stroke-linecap="round" class="Down"></path><path d="M1127 359L1126 -708" stroke-width="6" stroke="url(#SvgjsLinearGradient1641)" stroke-linecap="round" class="Down"></path><path d="M1013 1741L1012 1197" stroke-width="8" stroke="url(#SvgjsLinearGradient1642)" stroke-linecap="round" class="Down"></path><path d="M3032 29L3031 -1395" stroke-width="10" stroke="url(#SvgjsLinearGradient1639)" stroke-linecap="round" class="Up"></path><path d="M2923 1491L2922 783" stroke-width="10" stroke="url(#SvgjsLinearGradient1644)" stroke-linecap="round" class="Down"></path><path d="M1013 1070L1012 60" stroke-width="8" stroke="url(#SvgjsLinearGradient1637)" stroke-linecap="round" class="Down"></path><path d="M609 855L608 -28" stroke-width="6" stroke="url(#SvgjsLinearGradient1641)" stroke-linecap="round" class="Down"></path><path d="M1455 1512L1454 2323" stroke-width="10" stroke="url(#SvgjsLinearGradient1641)" stroke-linecap="round" class="Down"></path><path d="M1154 1861L1153 1113" stroke-width="10" stroke="url(#SvgjsLinearGradient1638)" stroke-linecap="round" class="Up"></path><path d="M139 1285L138 116" stroke-width="8" stroke="url(#SvgjsLinearGradient1635)" stroke-linecap="round" class="Up"></path><path d="M2516 984L2515 52" stroke-width="6" stroke="url(#SvgjsLinearGradient1636)" stroke-linecap="round" class="Down"></path><path d="M1468 1036L1467 -508" stroke-width="6" stroke="url(#SvgjsLinearGradient1643)" stroke-linecap="round" class="Up"></path><path d="M1204 886L1203 1701" stroke-width="6" stroke="url(#SvgjsLinearGradient1644)" stroke-linecap="round" class="Down"></path><path d="M1213 692L1212 2137" stroke-width="6" stroke="url(#SvgjsLinearGradient1635)" stroke-linecap="round" class="Up"></path><path d="M293 2030L292 2879" stroke-width="10" stroke="url(#SvgjsLinearGradient1643)" stroke-linecap="round" class="Up"></path><path d="M1871 751L1870 -618" stroke-width="8" stroke="url(#SvgjsLinearGradient1636)" stroke-linecap="round" class="Down"></path><path d="M1345 1570L1344 365" stroke-width="6" stroke="url(#SvgjsLinearGradient1633)" stroke-linecap="round" class="Up"></path><path d="M1571 1113L1570 -475" stroke-width="6" stroke="url(#SvgjsLinearGradient1640)" stroke-linecap="round" class="Down"></path><path d="M557 2081L556 2642" stroke-width="6" stroke="url(#SvgjsLinearGradient1644)" stroke-linecap="round" class="Down"></path><path d="M2114 1376L2113 -79" stroke-width="8" stroke="url(#SvgjsLinearGradient1643)" stroke-linecap="round" class="Up"></path><path d="M3108 354L3107 -377" stroke-width="8" stroke="url(#SvgjsLinearGradient1639)" stroke-linecap="round" class="Up"></path><path d="M2176 670L2175 2012" stroke-width="8" stroke="url(#SvgjsLinearGradient1637)" stroke-linecap="round" class="Down"></path><path d="M498 899L497 2186" stroke-width="8" stroke="url(#SvgjsLinearGradient1633)" stroke-linecap="round" class="Up"></path><path d="M2649 1379L2648 2982" stroke-width="10" stroke="url(#SvgjsLinearGradient1641)" stroke-linecap="round" class="Down"></path><path d="M1926 1136L1925 2353" stroke-width="8" stroke="url(#SvgjsLinearGradient1637)" stroke-linecap="round" class="Down"></path><path d="M3721 1061L3720 107" stroke-width="10" stroke="url(#SvgjsLinearGradient1641)" stroke-linecap="round" class="Down"></path><path d="M1313 1282L1312 2490" stroke-width="10" stroke="url(#SvgjsLinearGradient1637)" stroke-linecap="round" class="Down"></path><path d="M1398 1474L1397 445" stroke-width="10" stroke="url(#SvgjsLinearGradient1642)" stroke-linecap="round" class="Down"></path><path d="M2325 1539L2324 30" stroke-width="6" stroke="url(#SvgjsLinearGradient1638)" stroke-linecap="round" class="Up"></path><path d="M697 854L696 1719" stroke-width="8" stroke="url(#SvgjsLinearGradient1639)" stroke-linecap="round" class="Up"></path><path d="M1149 230L1148 1661" stroke-width="8" stroke="url(#SvgjsLinearGradient1639)" stroke-linecap="round" class="Up"></path><path d="M3709 855L3708 14" stroke-width="10" stroke="url(#SvgjsLinearGradient1638)" stroke-linecap="round" class="Up"></path><path d="M1485 1660L1484 3276" stroke-width="8" stroke="url(#SvgjsLinearGradient1635)" stroke-linecap="round" class="Up"></path><path d="M1505 739L1504 -358" stroke-width="10" stroke="url(#SvgjsLinearGradient1639)" stroke-linecap="round" class="Up"></path><path d="M3369 503L3368 -458" stroke-width="8" stroke="url(#SvgjsLinearGradient1641)" stroke-linecap="round" class="Down"></path><path d="M1627 1585L1626 80" stroke-width="6" stroke="url(#SvgjsLinearGradient1635)" stroke-linecap="round" class="Up"></path><path d="M1118 1955L1117 3170" stroke-width="10" stroke="url(#SvgjsLinearGradient1634)" stroke-linecap="round" class="Up"></path><path d="M3416 1700L3415 837" stroke-width="8" stroke="url(#SvgjsLinearGradient1644)" stroke-linecap="round" class="Down"></path><path d="M696 1867L695 2847" stroke-width="10" stroke="url(#SvgjsLinearGradient1643)" stroke-linecap="round" class="Up"></path><path d="M793 1240L792 574" stroke-width="6" stroke="url(#SvgjsLinearGradient1636)" stroke-linecap="round" class="Down"></path><path d="M2390 790L2389 -503" stroke-width="8" stroke="url(#SvgjsLinearGradient1634)" stroke-linecap="round" class="Up"></path><path d="M2726 159L2725 -761" stroke-width="6" stroke="url(#SvgjsLinearGradient1633)" stroke-linecap="round" class="Up"></path><path d="M3570 1336L3569 2873" stroke-width="6" stroke="url(#SvgjsLinearGradient1644)" stroke-linecap="round" class="Down"></path><path d="M3577 1325L3576 2047" stroke-width="10" stroke="url(#SvgjsLinearGradient1636)" stroke-linecap="round" class="Down"></path><path d="M922 57L921 1674" stroke-width="8" stroke="url(#SvgjsLinearGradient1639)" stroke-linecap="round" class="Up"></path><path d="M2829 1230L2828 2443" stroke-width="10" stroke="url(#SvgjsLinearGradient1643)" stroke-linecap="round" class="Up"></path><path d="M274 36L273 -1506" stroke-width="6" stroke="url(#SvgjsLinearGradient1644)" stroke-linecap="round" class="Down"></path><path d="M1463 1671L1462 2492" stroke-width="10" stroke="url(#SvgjsLinearGradient1639)" stroke-linecap="round" class="Up"></path><path d="M512 261L511 -1349" stroke-width="6" stroke="url(#SvgjsLinearGradient1637)" stroke-linecap="round" class="Down"></path><path d="M1400 301L1399 -254" stroke-width="6" stroke="url(#SvgjsLinearGradient1635)" stroke-linecap="round" class="Up"></path><path d="M1375 2073L1374 1022" stroke-width="8" stroke="url(#SvgjsLinearGradient1640)" stroke-linecap="round" class="Down"></path><path d="M1959 1790L1958 2771" stroke-width="6" stroke="url(#SvgjsLinearGradient1640)" stroke-linecap="round" class="Down"></path><path d="M2191 162L2190 -507" stroke-width="6" stroke="url(#SvgjsLinearGradient1644)" stroke-linecap="round" class="Down"></path><path d="M247 1320L246 400" stroke-width="6" stroke="url(#SvgjsLinearGradient1644)" stroke-linecap="round" class="Down"></path><path d="M86 1528L85 2122" stroke-width="10" stroke="url(#SvgjsLinearGradient1637)" stroke-linecap="round" class="Down"></path><path d="M86 1586L85 368" stroke-width="8" stroke="url(#SvgjsLinearGradient1633)" stroke-linecap="round" class="Up"></path><path d="M1922 643L1921 1960" stroke-width="10" stroke="url(#SvgjsLinearGradient1643)" stroke-linecap="round" class="Up"></path><path d="M3643 2045L3642 778" stroke-width="6" stroke="url(#SvgjsLinearGradient1639)" stroke-linecap="round" class="Up"></path><path d="M2772 1576L2771 182" stroke-width="6" stroke="url(#SvgjsLinearGradient1641)" stroke-linecap="round" class="Down"></path><path d="M1738 1432L1737 2520" stroke-width="10" stroke="url(#SvgjsLinearGradient1642)" stroke-linecap="round" class="Down"></path><path d="M2080 1889L2079 2687" stroke-width="10" stroke="url(#SvgjsLinearGradient1640)" stroke-linecap="round" class="Down"></path><path d="M3158 1238L3157 1824" stroke-width="8" stroke="url(#SvgjsLinearGradient1633)" stroke-linecap="round" class="Up"></path><path d="M2733 792L2732 2114" stroke-width="10" stroke="url(#SvgjsLinearGradient1643)" stroke-linecap="round" class="Up"></path><path d="M3590 207L3589 1380" stroke-width="6" stroke="url(#SvgjsLinearGradient1640)" stroke-linecap="round" class="Down"></path><path d="M3782 1231L3781 1996" stroke-width="8" stroke="url(#SvgjsLinearGradient1635)" stroke-linecap="round" class="Up"></path><path d="M3457 75L3456 1019" stroke-width="10" stroke="url(#SvgjsLinearGradient1640)" stroke-linecap="round" class="Down"></path><path d="M618 638L617 -338" stroke-width="10" stroke="url(#SvgjsLinearGradient1635)" stroke-linecap="round" class="Up"></path><path d="M1710 568L1709 1296" stroke-width="8" stroke="url(#SvgjsLinearGradient1639)" stroke-linecap="round" class="Up"></path></g><defs><mask id="SvgjsMask1632"><rect width="3840" height="2160" fill="#ffffff"></rect></mask><linearGradient x1="0%" y1="100%" x2="0%" y2="0%" id="SvgjsLinearGradient1633"><stop stop-color="rgba(88, 176, 242, 0)" offset="0"></stop><stop stop-color="rgba(88, 176, 242, 1)" offset="1"></stop></linearGradient><linearGradient x1="0%" y1="100%" x2="0%" y2="0%" id="SvgjsLinearGradient1634"><stop stop-color="rgba(64, 106, 237, 0)" offset="0"></stop><stop stop-color="rgba(64, 106, 237, 1)" offset="1"></stop></linearGradient><linearGradient x1="0%" y1="100%" x2="0%" y2="0%" id="SvgjsLinearGradient1635"><stop stop-color="rgba(0, 73, 255, 0)" offset="0"></stop><stop stop-color="rgba(0, 73, 255, 1)" offset="1"></stop></linearGradient><linearGradient x1="0%" y1="0%" x2="0%" y2="100%" id="SvgjsLinearGradient1636"><stop stop-color="rgba(88, 118, 242, 0)" offset="0"></stop><stop stop-color="rgba(88, 118, 242, 1)" offset="1"></stop></linearGradient><linearGradient x1="0%" y1="0%" x2="0%" y2="100%" id="SvgjsLinearGradient1637"><stop stop-color="rgba(88, 176, 242, 0)" offset="0"></stop><stop stop-color="rgba(88, 176, 242, 1)" offset="1"></stop></linearGradient><linearGradient x1="0%" y1="100%" x2="0%" y2="0%" id="SvgjsLinearGradient1638"><stop stop-color="rgba(88, 118, 242, 0)" offset="0"></stop><stop stop-color="rgba(88, 118, 242, 1)" offset="1"></stop></linearGradient><linearGradient x1="0%" y1="100%" x2="0%" y2="0%" id="SvgjsLinearGradient1639"><stop stop-color="rgba(86, 147, 247, 0)" offset="0"></stop><stop stop-color="rgba(86, 147, 247, 1)" offset="1"></stop></linearGradient><linearGradient x1="0%" y1="0%" x2="0%" y2="100%" id="SvgjsLinearGradient1640"><stop stop-color="rgba(0, 73, 255, 0)" offset="0"></stop><stop stop-color="rgba(0, 73, 255, 1)" offset="1"></stop></linearGradient><linearGradient x1="0%" y1="0%" x2="0%" y2="100%" id="SvgjsLinearGradient1641"><stop stop-color="rgba(86, 147, 247, 0)" offset="0"></stop><stop stop-color="rgba(86, 147, 247, 1)" offset="1"></stop></linearGradient><linearGradient x1="0%" y1="0%" x2="0%" y2="100%" id="SvgjsLinearGradient1642"><stop stop-color="rgba(64, 106, 237, 0)" offset="0"></stop><stop stop-color="rgba(64, 106, 237, 1)" offset="1"></stop></linearGradient><linearGradient x1="0%" y1="100%" x2="0%" y2="0%" id="SvgjsLinearGradient1643"><stop stop-color="rgba(37, 195, 213, 0)" offset="0"></stop><stop stop-color="rgba(37, 195, 213, 1)" offset="1"></stop></linearGradient><linearGradient x1="0%" y1="0%" x2="0%" y2="100%" id="SvgjsLinearGradient1644"><stop stop-color="rgba(37, 195, 213, 0)" offset="0"></stop><stop stop-color="rgba(37, 195, 213, 1)" offset="1"></stop></linearGradient></defs></svg>