<svg xmlns="http://www.w3.org/2000/svg" version="1.1" xmlns:xlink="http://www.w3.org/1999/xlink" xmlns:svgjs="http://svgjs.com/svgjs" width="1920" height="1080" preserveAspectRatio="none" viewBox="0 0 1920 1080"><g mask="url(&quot;#SvgjsMask1013&quot;)" fill="none"><rect width="1920" height="1080" x="0" y="0" fill="rgba(0, 0, 0, 1)"></rect><path d="M190 508L189 926" stroke-width="10" stroke="url(#SvgjsLinearGradient1014)" stroke-linecap="round" class="Down"></path><path d="M1348 677L1347 1207" stroke-width="8" stroke="url(#SvgjsLinearGradient1015)" stroke-linecap="round" class="Up"></path><path d="M1579 538L1578 131" stroke-width="8" stroke="url(#SvgjsLinearGradient1016)" stroke-linecap="round" class="Down"></path><path d="M377 926L376 1296" stroke-width="10" stroke="url(#SvgjsLinearGradient1017)" stroke-linecap="round" class="Down"></path><path d="M1294 18L1293 728" stroke-width="6" stroke="url(#SvgjsLinearGradient1018)" stroke-linecap="round" class="Up"></path><path d="M100 621L99 1011" stroke-width="8" stroke="url(#SvgjsLinearGradient1018)" stroke-linecap="round" class="Up"></path><path d="M556 55L555 -444" stroke-width="6" stroke="url(#SvgjsLinearGradient1018)" stroke-linecap="round" class="Up"></path><path d="M1264 320L1263 887" stroke-width="6" stroke="url(#SvgjsLinearGradient1019)" stroke-linecap="round" class="Up"></path><path d="M1067 1038L1066 474" stroke-width="10" stroke="url(#SvgjsLinearGradient1020)" stroke-linecap="round" class="Up"></path><path d="M1733 110L1732 -417" stroke-width="6" stroke="url(#SvgjsLinearGradient1014)" stroke-linecap="round" class="Down"></path><path d="M1277 192L1276 -360" stroke-width="6" stroke="url(#SvgjsLinearGradient1015)" stroke-linecap="round" class="Up"></path><path d="M1344 686L1343 1449" stroke-width="8" stroke="url(#SvgjsLinearGradient1016)" stroke-linecap="round" class="Down"></path><path d="M1431 739L1430 334" stroke-width="10" stroke="url(#SvgjsLinearGradient1021)" stroke-linecap="round" class="Up"></path><path d="M201 914L200 182" stroke-width="6" stroke="url(#SvgjsLinearGradient1016)" stroke-linecap="round" class="Down"></path><path d="M1474 189L1473 -208" stroke-width="10" stroke="url(#SvgjsLinearGradient1022)" stroke-linecap="round" class="Down"></path><path d="M300 535L299 1285" stroke-width="10" stroke="url(#SvgjsLinearGradient1016)" stroke-linecap="round" class="Down"></path><path d="M128 658L127 45" stroke-width="10" stroke="url(#SvgjsLinearGradient1023)" stroke-linecap="round" class="Down"></path><path d="M103 719L102 1153" stroke-width="6" stroke="url(#SvgjsLinearGradient1014)" stroke-linecap="round" class="Down"></path><path d="M291 12L290 604" stroke-width="10" stroke="url(#SvgjsLinearGradient1020)" stroke-linecap="round" class="Up"></path><path d="M501 190L500 -293" stroke-width="6" stroke="url(#SvgjsLinearGradient1016)" stroke-linecap="round" class="Down"></path><path d="M944 592L943 193" stroke-width="6" stroke="url(#SvgjsLinearGradient1022)" stroke-linecap="round" class="Down"></path><path d="M420 953L419 1667" stroke-width="8" stroke="url(#SvgjsLinearGradient1017)" stroke-linecap="round" class="Down"></path><path d="M600 625L599 962" stroke-width="6" stroke="url(#SvgjsLinearGradient1015)" stroke-linecap="round" class="Up"></path><path d="M198 136L197 589" stroke-width="8" stroke="url(#SvgjsLinearGradient1022)" stroke-linecap="round" class="Down"></path><path d="M536 405L535 127" stroke-width="8" stroke="url(#SvgjsLinearGradient1019)" stroke-linecap="round" class="Up"></path><path d="M1512 832L1511 1488" stroke-width="6" stroke="url(#SvgjsLinearGradient1021)" stroke-linecap="round" class="Up"></path><path d="M994 1075L993 365" stroke-width="10" stroke="url(#SvgjsLinearGradient1016)" stroke-linecap="round" class="Down"></path><path d="M1568 1056L1567 1861" stroke-width="6" stroke="url(#SvgjsLinearGradient1023)" stroke-linecap="round" class="Down"></path><path d="M361 453L360 787" stroke-width="10" stroke="url(#SvgjsLinearGradient1024)" stroke-linecap="round" class="Down"></path><path d="M1205 999L1204 220" stroke-width="6" stroke="url(#SvgjsLinearGradient1020)" stroke-linecap="round" class="Up"></path><path d="M990 581L989 67" stroke-width="6" stroke="url(#SvgjsLinearGradient1015)" stroke-linecap="round" class="Up"></path><path d="M60 169L59 -133" stroke-width="6" stroke="url(#SvgjsLinearGradient1024)" stroke-linecap="round" class="Down"></path><path d="M1328 349L1327 -353" stroke-width="10" stroke="url(#SvgjsLinearGradient1022)" stroke-linecap="round" class="Down"></path><path d="M320 770L319 271" stroke-width="6" stroke="url(#SvgjsLinearGradient1018)" stroke-linecap="round" class="Up"></path><path d="M1084 721L1083 -49" stroke-width="6" stroke="url(#SvgjsLinearGradient1019)" stroke-linecap="round" class="Up"></path><path d="M1465 27L1464 598" stroke-width="6" stroke="url(#SvgjsLinearGradient1021)" stroke-linecap="round" class="Up"></path><path d="M117 182L116 668" stroke-width="8" stroke="url(#SvgjsLinearGradient1015)" stroke-linecap="round" class="Up"></path><path d="M403 6L402 -535" stroke-width="6" stroke="url(#SvgjsLinearGradient1019)" stroke-linecap="round" class="Up"></path><path d="M265 358L264 -396" stroke-width="6" stroke="url(#SvgjsLinearGradient1024)" stroke-linecap="round" class="Down"></path><path d="M1191 18L1190 768" stroke-width="8" stroke="url(#SvgjsLinearGradient1025)" stroke-linecap="round" class="Up"></path><path d="M1889 595L1888 1085" stroke-width="8" stroke="url(#SvgjsLinearGradient1016)" stroke-linecap="round" class="Down"></path><path d="M134 60L133 -658" stroke-width="10" stroke="url(#SvgjsLinearGradient1022)" stroke-linecap="round" class="Down"></path><path d="M580 310L579 841" stroke-width="6" stroke="url(#SvgjsLinearGradient1020)" stroke-linecap="round" class="Up"></path><path d="M476 645L475 175" stroke-width="10" stroke="url(#SvgjsLinearGradient1025)" stroke-linecap="round" class="Up"></path><path d="M46 994L45 1696" stroke-width="8" stroke="url(#SvgjsLinearGradient1015)" stroke-linecap="round" class="Up"></path><path d="M1476 377L1475 1137" stroke-width="10" stroke="url(#SvgjsLinearGradient1025)" stroke-linecap="round" class="Up"></path><path d="M265 437L264 -253" stroke-width="8" stroke="url(#SvgjsLinearGradient1024)" stroke-linecap="round" class="Down"></path><path d="M202 1027L201 605" stroke-width="6" stroke="url(#SvgjsLinearGradient1020)" stroke-linecap="round" class="Up"></path></g><defs><mask id="SvgjsMask1013"><rect width="1920" height="1080" fill="#ffffff"></rect></mask><linearGradient x1="0%" y1="0%" x2="0%" y2="100%" id="SvgjsLinearGradient1014"><stop stop-color="rgba(211, 211, 211, 0)" offset="0"></stop><stop stop-color="rgba(211, 211, 211, 1)" offset="1"></stop></linearGradient><linearGradient x1="0%" y1="100%" x2="0%" y2="0%" id="SvgjsLinearGradient1015"><stop stop-color="rgba(179, 179, 179, 0)" offset="0"></stop><stop stop-color="rgba(179, 179, 179, 1)" offset="1"></stop></linearGradient><linearGradient x1="0%" y1="0%" x2="0%" y2="100%" id="SvgjsLinearGradient1016"><stop stop-color="rgba(179, 179, 179, 0)" offset="0"></stop><stop stop-color="rgba(179, 179, 179, 1)" offset="1"></stop></linearGradient><linearGradient x1="0%" y1="0%" x2="0%" y2="100%" id="SvgjsLinearGradient1017"><stop stop-color="rgba(169, 169, 169, 0)" offset="0"></stop><stop stop-color="rgba(169, 169, 169, 1)" offset="1"></stop></linearGradient><linearGradient x1="0%" y1="100%" x2="0%" y2="0%" id="SvgjsLinearGradient1018"><stop stop-color="rgba(204, 204, 204, 0)" offset="0"></stop><stop stop-color="rgba(204, 204, 204, 1)" offset="1"></stop></linearGradient><linearGradient x1="0%" y1="100%" x2="0%" y2="0%" id="SvgjsLinearGradient1019"><stop stop-color="rgba(169, 169, 169, 0)" offset="0"></stop><stop stop-color="rgba(169, 169, 169, 1)" offset="1"></stop></linearGradient><linearGradient x1="0%" y1="100%" x2="0%" y2="0%" id="SvgjsLinearGradient1020"><stop stop-color="rgba(255, 255, 255, 0)" offset="0"></stop><stop stop-color="rgba(255, 255, 255, 1)" offset="1"></stop></linearGradient><linearGradient x1="0%" y1="100%" x2="0%" y2="0%" id="SvgjsLinearGradient1021"><stop stop-color="rgba(221, 221, 221, 0)" offset="0"></stop><stop stop-color="rgba(221, 221, 221, 1)" offset="1"></stop></linearGradient><linearGradient x1="0%" y1="0%" x2="0%" y2="100%" id="SvgjsLinearGradient1022"><stop stop-color="rgba(221, 221, 221, 0)" offset="0"></stop><stop stop-color="rgba(221, 221, 221, 1)" offset="1"></stop></linearGradient><linearGradient x1="0%" y1="0%" x2="0%" y2="100%" id="SvgjsLinearGradient1023"><stop stop-color="rgba(255, 255, 255, 0)" offset="0"></stop><stop stop-color="rgba(255, 255, 255, 1)" offset="1"></stop></linearGradient><linearGradient x1="0%" y1="0%" x2="0%" y2="100%" id="SvgjsLinearGradient1024"><stop stop-color="rgba(204, 204, 204, 0)" offset="0"></stop><stop stop-color="rgba(204, 204, 204, 1)" offset="1"></stop></linearGradient><linearGradient x1="0%" y1="100%" x2="0%" y2="0%" id="SvgjsLinearGradient1025"><stop stop-color="rgba(211, 211, 211, 0)" offset="0"></stop><stop stop-color="rgba(211, 211, 211, 1)" offset="1"></stop></linearGradient></defs></svg>